<svg width="109" height="36" viewBox="0 0 109 36" fill="none" xmlns="http://www.w3.org/2000/svg">
<path d="M41.6444 13.8381C40.7987 13.8381 40.1638 14.058 39.7539 14.4913C39.3776 14.8899 39.1448 15.5044 39.062 16.3196H44.2577C44.1763 15.4697 43.95 14.8461 43.5814 14.463C43.1819 14.049 42.5301 13.8381 41.6444 13.8381Z" fill="#05070A"/>
<path d="M93.4915 19.2574C93.079 18.9025 92.4169 18.7213 91.5221 18.7213C90.6272 18.7213 89.9703 18.9025 89.5527 19.2574C89.3624 19.4307 89.2105 19.6415 89.1065 19.8764C89.0026 20.1112 88.9489 20.365 88.9489 20.6216C88.9489 20.8781 89.0026 21.1319 89.1065 21.3667C89.2105 21.6016 89.3624 21.8124 89.5527 21.9857C89.9639 22.3406 90.6259 22.5219 91.5221 22.5219C92.4182 22.5219 93.0854 22.3406 93.4915 21.9857C93.6817 21.8124 93.8336 21.6016 93.9376 21.3667C94.0415 21.1319 94.0952 20.8781 94.0952 20.6216C94.0952 20.365 94.0415 20.1112 93.9376 19.8764C93.8336 19.6415 93.6817 19.4307 93.4915 19.2574Z" fill="#05070A"/>
<path fill-rule="evenodd" clip-rule="evenodd" d="M10.3448 0H98.2759C101.019 0 103.651 1.08367 105.591 3.01262C107.531 4.94156 108.621 7.55777 108.621 10.2857V25.7143C108.621 28.4422 107.531 31.0584 105.591 32.9874C103.651 34.9163 101.019 36 98.2759 36H10.3448C7.60121 36 4.96996 34.9163 3.02993 32.9874C1.0899 31.0584 0 28.4422 0 25.7143V10.2857C0 7.55777 1.0899 4.94156 3.02993 3.01262C4.96996 1.08367 7.60121 0 10.3448 0ZM27.8625 25.9714H32.2966V10.0286H10.0862V25.9714H14.5203V14.1429H18.975V25.9714H23.4052V14.1429H27.8625V25.9714ZM39.181 19.6804H48.719L48.7138 17.6824C48.7138 15.237 48.1487 13.284 47.0328 11.8761C45.9013 10.449 44.1091 9.72643 41.7078 9.72643C39.2625 9.72643 37.4405 10.4901 36.2884 11.9996C35.1543 13.4859 34.5789 15.5096 34.5789 18.0116C34.5789 20.1921 35.1569 22.1259 36.2974 23.76C37.4586 25.4237 39.6427 26.2671 42.7927 26.2671C43.5595 26.2671 44.2785 26.2363 44.925 26.1759C45.7889 26.0785 46.6458 25.9269 47.4905 25.722L47.6909 25.6757V21.6154L47.3754 21.6849C46.6169 21.8605 45.8482 21.9893 45.0737 22.0706C44.431 22.1297 43.7651 22.1593 43.094 22.1593C41.7323 22.1593 40.7535 21.9304 40.1806 21.4804C39.675 21.0857 39.3388 20.4801 39.181 19.6804ZM60.5599 16.8339H64.9784V16.5716C64.9925 15.3752 64.7133 14.1935 64.1651 13.1284C63.6171 12.085 62.7767 11.2217 61.7457 10.6431C60.6853 10.0337 59.4052 9.72514 57.9401 9.72514C55.5414 9.72514 53.6754 10.4979 52.425 11.9893C51.1746 13.4807 50.5409 15.4941 50.5409 17.9807C50.5409 20.4673 51.1629 22.4781 52.4237 23.9863C53.6845 25.4944 55.5401 26.2659 57.9401 26.2659C59.4052 26.2659 60.6853 25.9573 61.7457 25.3479C62.7768 24.7689 63.6175 23.9058 64.1664 22.8626C64.7136 21.7968 64.9923 20.6147 64.9784 19.4181V19.161H60.5586L60.5431 19.4027C60.4862 20.3246 60.2767 21.0279 59.9185 21.4933C59.5797 21.9343 58.9345 22.1567 57.9996 22.1567C56.8319 22.1567 56.0328 21.8481 55.6241 21.2374C55.1961 20.5959 54.9776 19.4991 54.9776 17.9807C54.9776 16.4623 55.1935 15.372 55.6241 14.7394C56.0328 14.1429 56.8371 13.8394 58.0009 13.8394C58.9358 13.8394 59.581 14.0619 59.9198 14.5016C60.278 14.967 60.4875 15.6716 60.5444 16.5934L60.5599 16.8339ZM77.6534 25.9714H82.0875V10.0286H71.8435V4.48714H67.4095V25.9714H71.8435V14.1429H77.6534V25.9714ZM94.1004 25.9714H100.494V21.7119H98.5345V10.0286H86.2668V13.9847H94.1017V16.299C93.7536 15.9416 93.3413 15.6521 92.8862 15.4453C92.2009 15.1316 91.2879 14.9721 90.1707 14.9721C88.9629 14.9721 87.9194 15.237 87.0672 15.759C86.2394 16.2558 85.5731 16.9794 85.1483 17.8431C84.7344 18.7116 84.5198 19.6606 84.5198 20.6216C84.5198 21.5826 84.7344 22.5316 85.1483 23.4C85.5731 24.2637 86.2394 24.9873 87.0672 25.4841C87.9194 26.0061 88.9629 26.271 90.1707 26.271C91.2685 26.271 92.1776 26.1064 92.872 25.7824C93.3289 25.5721 93.7448 25.2831 94.1004 24.9287V25.9714Z" fill="#05070A"/>
</svg>
