<svg width="40" height="40" viewBox="0 0 40 40" fill="none" xmlns="http://www.w3.org/2000/svg">
<mask id="path-2-outside-1_1_20" maskUnits="userSpaceOnUse" x="4.62897" y="1.81567" width="31" height="36" fill="black">
<rect fill="white" x="4.62897" y="1.81567" width="31" height="36"/>
<path d="M32.3973 29.3517C32.1655 29.0921 32.0588 28.6123 31.9406 28.1001C31.8247 27.5901 31.6926 27.0408 31.2731 26.6862V26.6838C31.12 26.5512 30.9451 26.4461 30.7562 26.3733C31.3403 24.6464 31.1108 22.9266 30.5244 21.3736C29.8012 19.466 28.5426 17.8041 27.5807 16.6683C26.5052 15.31 25.4529 14.0213 25.4714 12.1183C25.5039 9.21169 25.7913 3.82263 20.6781 3.81567C20.4695 3.81567 20.2539 3.82495 20.0291 3.84349C14.3132 4.30243 15.8291 10.3405 15.7433 12.3617C15.639 13.8405 15.34 15.0041 14.3224 16.4504C13.1287 17.8713 11.4483 20.1683 10.6509 22.5627C10.2754 23.6915 10.0946 24.8435 10.2615 25.9329C10.2082 25.9792 10.1595 26.0279 10.1132 26.0789C9.76318 26.4521 9.50358 26.9064 9.21384 27.2123C8.94497 27.4812 8.5602 27.5832 8.13835 27.7338C7.71418 27.8868 7.2506 28.1093 6.97014 28.6494V28.6517C6.84571 28.8945 6.78433 29.1647 6.79166 29.4375C6.79166 29.6878 6.82875 29.9405 6.86583 30.1838C6.94464 30.6938 7.02345 31.1736 6.91914 31.4981C6.58537 32.4136 6.54133 33.0441 6.77775 33.503C7.01418 33.9643 7.4963 34.166 8.04563 34.2795C9.14199 34.5113 10.6277 34.4534 11.7983 35.0722C13.0499 35.7282 14.3224 35.96 15.3354 35.7305C15.6895 35.661 16.0223 35.5089 16.3066 35.2866C16.591 35.0642 16.8189 34.778 16.9718 34.4511C17.7645 34.4464 18.6337 34.1126 20.0267 34.0338C20.9724 33.9597 22.1546 34.3699 23.5105 34.2958C23.5457 34.443 23.5986 34.5854 23.6681 34.7199L23.6704 34.7222C24.1966 35.7769 25.1771 36.2567 26.2201 36.1756C27.2632 36.0921 28.3711 35.4779 29.2681 34.4093C30.1257 33.3709 31.5443 32.9421 32.4853 32.3742C32.9559 32.0891 33.3383 31.7345 33.3661 31.2176C33.3963 30.703 33.0926 30.1259 32.3973 29.3517Z"/>
</mask>
<path d="M12.3955 35.3854L12.4952 35.1954L11.3007 34.569L11.2011 34.7591L12.3955 35.3854ZM29.707 33.8973L29.5447 33.7583L28.667 34.7823L28.8293 34.9213L29.707 33.8973ZM32.3973 29.3517L31.3912 30.25L31.3939 30.253L32.3973 29.3517ZM31.9406 28.1001L30.6255 28.399L30.6265 28.4033L31.9406 28.1001ZM31.2731 26.6862H29.9244L30.4024 27.7162L31.2731 26.6862ZM31.2731 26.6838H32.6218L32.1563 25.6646L31.2731 26.6838ZM30.7562 26.3733L29.4786 25.9411L30.2708 27.6316L30.7562 26.3733ZM30.5244 21.3736L31.7861 20.8971L31.7855 20.8955L30.5244 21.3736ZM27.5807 16.6683L26.5233 17.5055L26.5515 17.54L27.5807 16.6683ZM25.4714 12.1183L24.1228 12.1033L24.1228 12.1052L25.4714 12.1183ZM20.6781 3.81567L20.6799 2.46698H20.6781V3.81567ZM20.0291 3.84349L20.137 5.18786L20.1399 5.18762L20.0291 3.84349ZM15.7433 12.3617L17.0887 12.4566L17.0908 12.4189L15.7433 12.3617ZM14.3224 16.4504L15.3551 17.318L15.4255 17.2265L14.3224 16.4504ZM10.6509 22.5627L9.37132 22.1365L9.37118 22.137L10.6509 22.5627ZM10.2615 25.9329L11.1465 26.9506L11.5947 25.7286L10.2615 25.9329ZM10.1132 26.0789L11.0969 27.0015L11.1111 26.9861L10.1132 26.0789ZM9.21384 27.2123L10.1675 28.166L10.1931 28.1397L9.21384 27.2123ZM8.13835 27.7338L7.68473 26.4637L7.68078 26.4651L8.13835 27.7338ZM6.97014 28.6494L5.77322 28.0278L5.62144 28.6494H6.97014ZM6.97014 28.6517L8.17041 29.2668L8.31883 28.6517H6.97014ZM6.79166 29.4375L8.14036 29.4375L8.13987 29.4013L6.79166 29.4375ZM6.86583 30.1838L5.53253 30.387L5.53296 30.3898L6.86583 30.1838ZM6.91914 31.4981L8.18626 31.96L8.20314 31.9108L6.91914 31.4981ZM6.77775 33.503L7.97797 32.8879L7.97671 32.8854L6.77775 33.503ZM8.04563 34.2795L8.32461 32.96L8.3187 32.9588L8.04563 34.2795ZM11.7983 35.0722L11.1679 36.2646L11.1722 36.2668L11.7983 35.0722ZM15.3354 35.7305L15.0755 34.4071L15.0374 34.4152L15.3354 35.7305ZM16.9718 34.4511L16.9639 33.1024L15.7501 33.8796L16.9718 34.4511ZM20.0267 34.0338L20.1029 35.3804L20.1322 35.3784L20.0267 34.0338ZM23.5105 34.2958L24.8223 33.9826L23.4368 32.9491L23.5105 34.2958ZM23.6681 34.7199L22.4701 35.3394L22.7145 35.6736L23.6681 34.7199ZM23.6704 34.7222L24.8773 34.1202L24.6241 33.7686L23.6704 34.7222ZM26.2201 36.1756L26.3247 37.5202L26.3277 37.52L26.2201 36.1756ZM29.2681 34.4093L30.3011 35.2765L30.308 35.2682L29.2681 34.4093ZM32.4853 32.3742L33.1822 33.529L33.1842 33.5277L32.4853 32.3742ZM33.3661 31.2176L32.0197 31.1388L32.0194 31.1451L33.3661 31.2176ZM33.4033 28.4535C33.4465 28.5018 33.4594 28.5323 33.4527 28.5188C33.4464 28.506 33.4309 28.4712 33.4089 28.4034C33.3608 28.2557 33.3186 28.0733 33.2548 27.7968L30.6265 28.4033C30.6809 28.6391 30.751 28.9527 30.8438 29.2379C30.9325 29.5106 31.0872 29.9095 31.3912 30.25L33.4033 28.4535ZM33.2558 27.8012C33.1577 27.3695 32.9619 26.3477 32.1437 25.6562L30.4024 27.7162C30.4025 27.7162 30.4027 27.7164 30.4031 27.7168C30.4035 27.7172 30.4042 27.7179 30.4053 27.7191C30.4074 27.7215 30.4115 27.7265 30.4173 27.7353C30.4295 27.7534 30.4485 27.7867 30.4717 27.8436C30.5241 27.9723 30.5651 28.1333 30.6255 28.399L33.2558 27.8012ZM32.6218 26.6862V26.6838H29.9244V26.6862H32.6218ZM32.1563 25.6646C31.8854 25.4299 31.576 25.2439 31.2416 25.1149L30.2708 27.6316C30.3143 27.6484 30.3546 27.6726 30.3899 27.7031L32.1563 25.6646ZM32.0338 26.8054C32.7469 24.6972 32.4459 22.6443 31.7861 20.8971L29.2627 21.85C29.7758 23.2089 29.9337 24.5957 29.4786 25.9411L32.0338 26.8054ZM31.7855 20.8955C30.98 18.7706 29.6021 16.9682 28.6099 15.7967L26.5515 17.54C27.4831 18.6399 28.6225 20.1614 29.2633 21.8517L31.7855 20.8955ZM28.6381 15.8311C27.5119 14.4087 26.8069 13.4848 26.8201 12.1315L24.1228 12.1052C24.0989 14.5578 25.4986 16.2113 26.5233 17.5055L28.6381 15.8311ZM26.82 12.1334C26.8353 10.7701 26.9349 8.43143 26.2855 6.45801C25.9494 5.43669 25.3859 4.41542 24.4297 3.65276C23.4593 2.87876 22.2071 2.46906 20.6799 2.46698L20.6762 5.16437C21.7057 5.16577 22.335 5.4323 22.7478 5.76154C23.1748 6.10212 23.4962 6.61108 23.7233 7.30123C24.2003 8.75073 24.1401 10.5599 24.1228 12.1033L26.82 12.1334ZM20.6781 2.46698C20.4294 2.46698 20.1768 2.47803 19.9182 2.49936L20.1399 5.18762C20.331 5.17186 20.5095 5.16437 20.6781 5.16437V2.46698ZM19.9211 2.49912C18.2407 2.63404 16.9403 3.19743 16.007 4.12957C15.0899 5.04548 14.6542 6.19108 14.45 7.26463C14.2467 8.33269 14.2559 9.41799 14.2982 10.3066C14.3453 11.2985 14.414 11.8762 14.3958 12.3045L17.0908 12.4189C17.1155 11.8366 17.0269 10.9016 16.9925 10.1786C16.9532 9.3522 16.9568 8.52033 17.0998 7.76886C17.2418 7.02287 17.5042 6.44658 17.9132 6.03811C18.3059 5.64587 18.9594 5.28241 20.137 5.18786L19.9211 2.49912ZM14.398 12.2668C14.3074 13.55 14.0697 14.4657 13.2194 15.6744L15.4255 17.2265C16.6102 15.5425 16.9706 14.131 17.0887 12.4566L14.398 12.2668ZM13.2898 15.5829C12.0633 17.0428 10.2503 19.497 9.37132 22.1365L11.9305 22.9888C12.6462 20.8396 14.1942 18.6998 15.3551 17.318L13.2898 15.5829ZM9.37118 22.137C8.9541 23.3908 8.71866 24.7681 8.92838 26.1371L11.5947 25.7286C11.4706 24.9188 11.5968 23.9922 11.9307 22.9884L9.37118 22.137ZM9.37654 24.9151C9.27678 25.0019 9.19057 25.0888 9.11523 25.1717L11.1111 26.9861C11.1285 26.967 11.1396 26.9566 11.1465 26.9506L9.37654 24.9151ZM9.12945 25.1563C8.88983 25.4117 8.69206 25.6832 8.55155 25.8757C8.38945 26.0977 8.30727 26.2082 8.23456 26.285L10.1931 28.1397C10.4101 27.9105 10.6026 27.6408 10.7303 27.466C10.8795 27.2615 10.9865 27.1192 11.0969 27.0015L9.12945 25.1563ZM8.26017 26.2587C8.29493 26.2239 8.30437 26.2341 8.20385 26.2771C8.15369 26.2985 8.09061 26.3222 7.99998 26.354C7.93228 26.3778 7.786 26.4276 7.68473 26.4637L8.59196 29.004C8.73201 28.954 9.03132 28.8567 9.26308 28.7578C9.52763 28.6448 9.86388 28.4696 10.1675 28.166L8.26017 26.2587ZM7.68078 26.4651C7.16496 26.6512 6.29392 27.0252 5.77322 28.0278L8.16706 29.271C8.1953 29.2166 8.22522 29.1852 8.27188 29.1527C8.33253 29.1104 8.42539 29.0641 8.59591 29.0026L7.68078 26.4651ZM5.62144 28.6494V28.6517H8.31883V28.6494H5.62144ZM5.76986 28.0367C5.5423 28.4807 5.43005 28.9749 5.44345 29.4737L8.13987 29.4013C8.13862 29.3546 8.14912 29.3084 8.17041 29.2668L5.76986 28.0367ZM5.44297 29.4375C5.44297 29.8047 5.49702 30.154 5.53253 30.387L8.19914 29.9807C8.16047 29.7269 8.14036 29.571 8.14036 29.4375L5.44297 29.4375ZM5.53296 30.3898C5.57547 30.6649 5.60444 30.8512 5.6161 31.0096C5.6215 31.0828 5.62095 31.1252 5.61974 31.1449C5.61845 31.166 5.61762 31.1399 5.63515 31.0854L8.20314 31.9108C8.3358 31.4981 8.32659 31.0882 8.30621 30.8114C8.28484 30.5213 8.235 30.2127 8.19871 29.9779L5.53296 30.3898ZM5.65203 31.0361C5.29233 32.0228 5.06875 33.1306 5.5788 34.1207L7.97671 32.8854C7.99676 32.9243 7.96984 32.9108 7.97999 32.7665C7.99109 32.6087 8.04304 32.3529 8.18626 31.96L5.65203 31.0361ZM5.57754 34.1182C6.1091 35.1553 7.13773 35.469 7.77256 35.6003L8.3187 32.9588C8.11 32.9156 8.00191 32.8721 7.95238 32.8444C7.93232 32.8332 7.93313 32.8307 7.94378 32.8412C7.95592 32.8531 7.96888 32.8701 7.97797 32.8879L5.57754 34.1182ZM7.76666 35.5991C8.36348 35.7252 9.20313 35.7957 9.7068 35.8664C10.3179 35.9521 10.7939 36.0668 11.1679 36.2646L12.4287 33.8799C11.6321 33.4588 10.78 33.2931 10.0815 33.1951C9.27555 33.0821 8.82414 33.0656 8.3246 32.96L7.76666 35.5991ZM11.1722 36.2668C12.6113 37.021 14.2159 37.367 15.6333 37.0459L15.0374 34.4152C14.4289 34.553 13.4885 34.4354 12.4243 33.8777L11.1722 36.2668ZM15.5952 37.0539C16.1576 36.9435 16.6859 36.702 17.1374 36.349L15.4759 34.2241C15.3587 34.3157 15.2215 34.3784 15.0755 34.4071L15.5952 37.0539ZM17.1374 36.349C17.5888 35.9961 17.9506 35.5416 18.1934 35.0225L15.7501 33.8796C15.6871 34.0144 15.5931 34.1324 15.4759 34.2241L17.1374 36.349ZM16.9797 35.7997C17.5286 35.7965 18.0852 35.6796 18.5276 35.5949C19.0065 35.5033 19.4997 35.4145 20.1029 35.3804L19.9506 32.6873C19.1607 32.732 18.5228 32.8495 18.0206 32.9456C17.4821 33.0487 17.2077 33.101 16.9639 33.1024L16.9797 35.7997ZM20.1322 35.3784C20.4202 35.3558 20.777 35.4067 21.4225 35.4997C22.0064 35.5838 22.7592 35.6876 23.5842 35.6424L23.4368 32.9491C22.9059 32.9781 22.3896 32.9138 21.8071 32.8299C21.2861 32.7548 20.5789 32.6377 19.9213 32.6893L20.1322 35.3784ZM22.1987 34.609C22.2592 34.8625 22.3504 35.1078 22.4701 35.3394L24.8662 34.1005C24.8468 34.0631 24.8321 34.0235 24.8223 33.9826L22.1987 34.609ZM22.7145 35.6736L22.7168 35.6759L24.6241 33.7686L24.6218 33.7663L22.7145 35.6736ZM22.4636 35.3243C23.2485 36.8977 24.7651 37.6415 26.3247 37.5202L26.1155 34.8309C25.589 34.8719 25.1447 34.6561 24.8773 34.1202L22.4636 35.3243ZM26.3277 37.52C27.8117 37.4012 29.23 36.5524 30.3011 35.2765L28.2352 33.5422C27.5122 34.4034 26.7147 34.783 26.1126 34.8312L26.3277 37.52ZM30.308 35.2682C30.5683 34.953 30.9521 34.686 31.4784 34.4063C31.7419 34.2662 32.0034 34.1417 32.2987 33.9974C32.578 33.8608 32.8909 33.7047 33.1822 33.529L31.7885 31.2195C31.6092 31.3277 31.3919 31.4382 31.1138 31.5742C30.8516 31.7024 30.5284 31.8565 30.2125 32.0244C29.5798 32.3607 28.8255 32.8273 28.2282 33.5505L30.308 35.2682ZM33.1842 33.5277C33.7251 33.2 34.6466 32.5216 34.7129 31.2901L32.0194 31.1451C32.0211 31.1129 32.0294 31.0776 32.0425 31.0469C32.0546 31.0186 32.0644 31.009 32.057 31.0179C32.0485 31.0279 32.0256 31.0526 31.9785 31.09C31.9315 31.1274 31.8688 31.1709 31.7864 31.2208L33.1842 33.5277ZM34.7125 31.2965C34.7772 30.1922 34.1182 29.2494 33.4006 28.4505L31.3939 30.253C31.7037 30.5979 31.8718 30.8403 31.9576 31.0051C32.0383 31.16 32.0168 31.1893 32.0197 31.1388L34.7125 31.2965Z" fill="black" mask="url(#path-2-outside-1_1_20)"/>
<path d="M16.0872 33.5019L16.0882 33.4817C16.099 33.3715 16.0634 33.1672 15.905 32.8472C15.7526 32.5396 15.5211 32.1929 15.2383 31.8221C15.097 31.6374 14.9482 31.452 14.7953 31.2622C14.7813 31.2448 14.7672 31.2273 14.7531 31.2098C14.615 31.0385 14.4736 30.8631 14.3388 30.6894C14.046 30.3124 13.7527 29.9047 13.5553 29.4932L13.5552 29.4928L12.3594 27.3143C11.9828 26.8153 11.6875 26.6387 11.4464 26.6025L11.4374 26.6012L11.4374 26.6011C11.4009 26.5951 11.3641 26.5919 11.3272 26.5914H11.3217C11.2459 26.5921 11.1976 26.6081 11.1518 26.6334C11.0957 26.6645 11.0237 26.7211 10.9188 26.8326C10.8024 26.9572 10.6879 27.1135 10.5356 27.3214L10.5334 27.3244C10.3899 27.5203 10.2156 27.7576 10.0113 27.9743L9.99725 27.9888L9.9951 27.9909C9.99504 27.991 9.99499 27.991 9.99493 27.9911C9.56196 28.424 9.00547 28.6088 8.66624 28.7214C8.60863 28.7406 8.55729 28.7576 8.51389 28.7734L8.50941 28.7751L8.50941 28.7751C8.154 28.9018 8.04297 28.9779 7.94719 29.1623L7.93983 29.1723L7.94058 29.1728C7.92793 29.1963 7.90249 29.2663 7.90077 29.4261C7.89907 29.5836 7.92023 29.7765 7.95725 30.0166L7.95733 30.0171C7.96467 30.0649 7.97335 30.1169 7.98264 30.1725C8.05414 30.6007 8.16146 31.2434 7.96681 31.8416L7.95816 31.8627L7.95664 31.8713C7.6548 32.6975 7.7443 32.9708 7.75946 33.0025C7.76118 33.0057 7.76403 33.01 7.77117 33.0169C7.78015 33.0255 7.79944 33.0415 7.83693 33.0619C7.91748 33.1058 8.0521 33.1544 8.27203 33.2003L8.27264 33.2004C8.48622 33.2451 8.74092 33.277 9.04817 33.3107C9.10595 33.3171 9.16554 33.3235 9.22664 33.33C9.48005 33.3573 9.75942 33.3873 10.0433 33.4274C10.7495 33.527 11.556 33.697 12.3123 34.0981C13.4008 34.6653 14.4179 34.8069 15.0884 34.6541L16.0872 33.5019ZM16.0872 33.5019L16.087 33.5019C16.0571 33.8853 15.9403 34.125 15.7967 34.2834C15.6498 34.4454 15.4251 34.577 15.0888 34.654L16.0872 33.5019ZM32.1657 30.8871C32.259 31.0653 32.2625 31.1452 32.2628 31.1513L32.2625 31.156C32.2598 31.1607 32.2537 31.17 32.2416 31.184C32.1971 31.2357 32.1036 31.3155 31.9162 31.4282L31.9153 31.4287C31.7339 31.5381 31.5081 31.6493 31.2285 31.7832C31.196 31.7987 31.1629 31.8145 31.1292 31.8306C30.8825 31.9484 30.6054 32.0807 30.3256 32.2297C29.6897 32.5682 28.984 33.0206 28.4217 33.7022C27.6708 34.5931 26.8074 35.0204 26.1286 35.0749C25.7886 35.1012 25.5058 35.0422 25.276 34.9164C25.0481 34.7916 24.8305 34.5785 24.6545 34.2264L24.6524 34.2275L24.6477 34.2085C24.5878 34.095 24.5436 33.8904 24.564 33.5541C24.5838 33.2264 24.6605 32.8388 24.7749 32.409C24.8434 32.1517 24.9118 31.9217 24.9825 31.6843C25.0395 31.4926 25.098 31.2962 25.1591 31.0766C25.2827 30.6323 25.3966 30.1578 25.4244 29.7091L25.4245 29.7091L25.4249 29.6999C25.4719 28.7259 25.5265 27.9546 25.6697 27.3838L25.6698 27.3833C25.6739 27.3669 25.678 27.3508 25.6822 27.335C25.6894 27.3477 25.6968 27.3604 25.7042 27.3729C25.9676 27.8182 26.3823 28.2231 26.9663 28.3712C27.5927 28.5343 28.2562 28.3374 28.7555 28.0982C29.1654 27.9017 29.5557 27.6332 29.8549 27.3517L29.862 27.3514C29.8627 27.3514 29.8633 27.3514 29.8639 27.3514C30.2416 27.3412 30.3796 27.3711 30.5493 27.5183L30.5493 27.5183L30.5564 27.5244C30.5785 27.543 30.6302 27.602 30.6932 27.7576C30.7552 27.9105 30.8082 28.1049 30.8647 28.3493C30.8752 28.3948 30.886 28.4443 30.8975 28.497C30.9924 28.9333 31.1363 29.5942 31.5713 30.0847L31.5738 30.0875C31.8839 30.4333 32.0659 30.6965 32.1657 30.8871Z" stroke="black" stroke-width="1.34869" stroke-linejoin="bevel"/>
<path d="M17.8985 12.2756C17.8464 12.3249 17.7959 12.3637 17.7546 12.3947C17.7367 12.4081 17.7165 12.423 17.6962 12.438C17.6925 12.4407 17.6888 12.4434 17.6851 12.4461C17.6668 12.4597 17.6469 12.4744 17.6246 12.491L17.6498 12.4839C17.6635 12.5325 17.785 12.8123 18.4018 12.8943C18.9345 12.9651 19.8057 12.8746 21.1292 12.3323C20.9218 12.2573 20.7089 12.1684 20.4723 12.0153L17.8985 12.2756ZM17.8985 12.2756C17.9304 12.2456 17.962 12.2154 17.9935 12.1853C18.2276 11.9619 18.4564 11.7434 18.788 11.631L18.788 11.631L18.7947 11.6287C18.9261 11.5826 19.0643 11.5586 19.2036 11.5578C19.495 11.5581 19.9093 11.6514 20.4721 12.0152L17.8985 12.2756ZM18.4614 14.3362C18.4237 14.3061 18.3893 14.2769 18.3544 14.2461C19.0225 14.3101 19.8536 14.206 20.8782 13.8644C20.7845 13.9144 20.698 13.9664 20.6192 14.0156C20.5386 14.0659 20.4708 14.1099 20.4079 14.1508C20.3084 14.2153 20.2211 14.272 20.1142 14.3335C19.8071 14.5079 19.5181 14.6197 19.1221 14.5957L19.1203 14.5956C18.9534 14.586 18.8371 14.5541 18.748 14.5161C18.6485 14.472 18.5555 14.4143 18.4718 14.3446L18.4718 14.3445L18.4614 14.3362Z" stroke="black" stroke-width="1.34869" stroke-linejoin="bevel"/>
<path d="M16.6569 31.9128C16.5277 31.7097 16.3838 31.5067 16.2334 31.306M16.6569 31.9128C19.049 33.5446 21.8652 32.9188 23.8933 31.4724M16.6569 31.9128L17.0369 31.3557C17.0733 31.3805 17.1098 31.4047 17.1464 31.4283M16.6569 31.9128L17.2258 31.5508C17.1998 31.5098 17.1733 31.469 17.1464 31.4283M16.2334 31.306L16.4713 30.5084C16.5286 30.4736 16.5814 30.4315 16.6283 30.3831C16.7024 30.3066 16.7602 30.2159 16.7983 30.1164C16.9443 29.7224 16.7983 29.1707 16.3301 28.5403M16.2334 31.306C16.3678 31.2778 16.4997 31.2369 16.6271 31.1837L16.6281 31.1833C16.7167 31.1461 16.8012 31.1004 16.8805 31.0469M16.2334 31.306L16.6519 30.7421C16.7285 30.8418 16.8051 30.9435 16.8805 31.0469M23.8933 31.4724C23.9087 31.4195 23.924 31.3668 23.9393 31.3144C24.1244 30.6785 24.2966 30.0867 24.3245 29.6413M23.8933 31.4724L23.2457 31.2846C23.2571 31.2451 23.2684 31.2062 23.2796 31.1677C23.2907 31.1294 23.3017 31.0915 23.3126 31.0541M23.8933 31.4724L23.5018 30.9234C23.4394 30.9679 23.3763 31.0115 23.3126 31.0541M24.3245 29.6413C24.3731 28.677 24.4241 27.8217 24.6003 27.1148M24.3245 29.6413L23.651 29.6073C23.651 29.6058 23.6511 29.6044 23.6512 29.6029M24.3245 29.6413L23.6514 29.5992C23.6513 29.6004 23.6513 29.6017 23.6512 29.6029M24.6003 27.1148C24.7764 26.4055 25.094 25.8284 25.6781 25.5108M24.6003 27.1148L23.9459 26.9517M24.6003 27.1148L23.9458 26.9522C23.9458 26.9522 23.9459 26.9521 23.9459 26.952M25.6781 25.5108C25.7672 25.4615 25.8603 25.4197 25.9562 25.3857M25.6781 25.5108L25.5935 25.3577L25.2839 25.3339C25.2907 25.2447 25.3036 25.1638 25.3174 25.0928C25.3265 25.0349 25.3376 24.9776 25.3507 24.9213M25.6781 25.5108L25.5949 25.3579L25.9562 25.3857M25.9562 25.3857C25.9609 25.3254 25.9701 25.2674 25.9817 25.2095M25.9562 25.3857L25.8888 25.1955L25.9817 25.2095M25.9817 25.2095C26.0599 24.692 26.3177 24.405 26.6969 24.302L26.1641 23.8666C26.1601 23.8442 26.156 23.8219 26.1518 23.7996M25.9817 25.2095L25.8871 25.1906L25.731 24.75C25.6009 24.7962 25.4747 24.8528 25.3539 24.9195C25.3528 24.9201 25.3517 24.9207 25.3507 24.9213M26.1518 23.7996C26.3071 23.7137 26.4741 23.6558 26.6455 23.6219C26.6964 23.6119 26.7479 23.6039 26.7998 23.5979C26.4547 21.8265 25.7139 20.3618 25.3374 19.6628C24.7029 18.4827 23.7583 16.2227 23.204 14.3879C23.0354 14.5502 22.8428 14.6959 22.6325 14.8229M26.1518 23.7996C25.8329 22.0969 25.1154 20.6727 24.7437 19.9826L24.7434 19.9822C24.1167 18.8165 23.2079 16.6575 22.6325 14.8229M26.1518 23.7996C26.0049 23.8809 25.8684 23.9872 25.7483 24.1219C25.5469 24.348 25.4201 24.6223 25.3507 24.9213M22.6325 14.8229C22.5602 14.5924 22.4931 14.3671 22.4326 14.1494C22.1893 14.3182 21.9001 14.4597 21.5778 14.5612M22.6325 14.8229C22.372 14.9802 22.0841 15.1087 21.7803 15.2044L21.5778 14.5612M21.5778 14.5612C21.3846 14.6226 21.1865 14.7488 20.9643 14.8905C20.8426 14.9681 20.7136 15.0503 20.5741 15.129C20.2149 15.3353 19.7814 15.5185 19.2251 15.5185M21.5778 14.5612L21.782 15.2038C21.7196 15.2237 21.6289 15.2696 21.468 15.3698C21.431 15.3928 21.3889 15.4196 21.343 15.4489C21.2174 15.5289 21.0634 15.6271 20.9078 15.7151M19.2251 15.5185C18.7389 15.5338 18.2641 15.3687 17.8923 15.0549M19.2251 15.5185V16.1928C19.2286 16.1928 19.2321 16.1928 19.2356 16.1928M19.2251 15.5185L19.2464 16.1925C19.2428 16.1926 19.2392 16.1927 19.2356 16.1928M17.8923 15.0549C17.7888 14.9715 17.6938 14.8851 17.6009 14.8006C17.5154 14.7229 17.4317 14.6467 17.3446 14.5759C17.3163 14.8364 17.2742 15.1006 17.2208 15.3663M17.8923 15.0549L17.4574 15.5702C17.4595 15.5719 17.4615 15.5737 17.4636 15.5754M17.8923 15.0549L17.4695 15.5802C17.4675 15.5786 17.4655 15.577 17.4636 15.5754M17.2208 15.3663C17.1902 15.3388 17.161 15.3122 17.1335 15.2872C17.1021 15.2586 17.0731 15.2322 17.0471 15.209C16.9317 15.1059 16.8441 15.0354 16.7576 14.9829C16.7175 14.9604 16.6697 14.931 16.6204 14.8996C16.3273 16.7129 15.3832 18.7447 14.6712 20.277C14.5036 20.6377 14.3489 20.9708 14.2185 21.2668M17.2208 15.3663C17.0284 16.324 16.6896 17.302 16.3253 18.2053C15.9842 19.0514 15.5967 19.8858 15.2695 20.5904C15.1061 20.9422 14.9577 21.2616 14.8377 21.5339M17.2208 15.3663C17.2959 15.4339 17.3791 15.5071 17.4636 15.5754M14.2185 21.2668C13.8574 22.121 13.5979 23.0177 13.4586 23.9189C13.5482 24.2068 13.6863 24.4856 13.8841 24.7491L13.3825 25.1255C13.3901 25.1355 13.3978 25.1456 13.4056 25.1556C13.4494 25.2118 13.4966 25.2676 13.5474 25.3228M14.2185 21.2668L14.8357 21.5386C14.8363 21.537 14.837 21.5355 14.8377 21.5339M14.2185 21.2668L14.8396 21.5294C14.839 21.5309 14.8383 21.5324 14.8377 21.5339M13.5474 25.3228L12.8531 25.5434C13.1123 25.8829 13.4595 26.1988 13.9126 26.482M13.5474 25.3228C13.7351 25.5269 13.9716 25.7235 14.2679 25.9089M13.5474 25.3228L14.0187 25.173C14.0532 23.959 14.3421 22.7078 14.8377 21.5339M13.9126 26.482C15.0738 27.1959 15.8642 27.9075 16.3301 28.5403M13.9126 26.482L14.27 25.9102C14.2693 25.9097 14.2686 25.9093 14.2679 25.9089M13.9126 26.482L14.2657 25.9075C14.2665 25.908 14.2672 25.9084 14.2679 25.9089M16.3301 28.5403L16.8731 28.1405C16.8729 28.1401 16.8726 28.1397 16.8723 28.1394M16.3301 28.5403L16.8715 28.1382C16.8718 28.1386 16.8721 28.139 16.8723 28.1394M16.8805 31.0469C16.9642 30.9904 17.042 30.9252 17.1127 30.8523C17.2502 30.7104 17.3575 30.542 17.4281 30.3575L17.4281 30.3575L17.4306 30.3508C17.6987 29.6274 17.3806 28.8242 16.8723 28.1394M16.8805 31.0469C16.9717 31.172 17.061 31.2994 17.1464 31.4283M16.8723 28.1394C16.3396 27.4162 15.4749 26.6512 14.2679 25.9089M16.8723 28.1394L23.9459 26.9517M16.8723 28.1394L23.9459 26.952M17.4636 15.5754C17.9589 15.9909 18.5893 16.2105 19.2356 16.1928M19.2356 16.1928C19.9457 16.1905 20.4929 15.953 20.9078 15.7151M20.9078 15.7151C20.9071 15.7154 20.9064 15.7158 20.9057 15.7162L20.5742 15.1291L20.9099 15.7138C20.9092 15.7143 20.9085 15.7147 20.9078 15.7151ZM25.3507 24.9213C24.5352 25.3671 24.1441 26.1541 23.9459 26.9517M23.9459 26.9517L23.9459 26.952M23.9459 26.952C23.7513 27.7329 23.6991 28.6548 23.6512 29.6029M17.1464 31.4283C19.1333 32.711 21.4821 32.2789 23.3126 31.0541M23.3126 31.0541C23.493 30.432 23.6288 29.9489 23.6512 29.6029" stroke="black" stroke-width="1.34869" stroke-linejoin="bevel"/>
<path d="M22.8797 21.9449C23.6682 22.6225 24.3584 23.5886 24.8745 24.7734C24.1391 25.2992 23.7651 26.0983 23.5755 26.8612C23.3669 27.6957 23.317 28.6365 23.2691 29.5823C23.253 29.8318 23.143 30.2561 22.9844 30.8147C21.2789 31.9109 19.1901 32.2661 17.4032 31.1475C17.3954 31.1359 17.3876 31.1243 17.3798 31.1128C17.5493 30.9368 17.6841 30.7275 17.7743 30.4954L17.7744 30.4954L17.7778 30.4862C18.1155 29.5784 17.7203 28.6592 17.171 27.9167C16.6724 27.2424 15.9195 26.5586 14.9264 25.8965C15.3871 24.4135 16.103 23.1683 16.9803 22.2834L16.9813 22.2824C17.942 21.3092 19.0355 20.8277 20.1135 20.8233C21.0553 20.8297 22.0102 21.1997 22.8797 21.9449Z" stroke="black" stroke-width="1.34869" stroke-linejoin="bevel"/>
<mask id="path-8-inside-2_1_20" fill="white">
<path d="M22.9818 10.345C22.9918 10.8935 22.8162 11.4293 22.4834 11.8655C22.317 11.7911 22.1485 11.7216 21.9781 11.6569L21.6837 11.5526C21.751 11.4715 21.8808 11.3787 21.9318 11.2582C22.0052 11.0793 22.0445 10.8883 22.0476 10.695L22.05 10.6718C22.0557 10.4861 22.0282 10.3008 21.9688 10.1248C21.9222 9.96399 21.8361 9.81739 21.7185 9.69827C21.6719 9.64877 21.6159 9.60896 21.5539 9.58112C21.4918 9.55327 21.4249 9.53795 21.3569 9.53602H21.3407C21.2109 9.53783 21.0863 9.58733 20.9907 9.6751C20.8642 9.78467 20.767 9.92409 20.7079 10.0807C20.6349 10.2597 20.5956 10.4507 20.592 10.644V10.6671C20.5884 10.7757 20.5954 10.8844 20.6129 10.9916C20.3499 10.8703 20.0749 10.777 19.7924 10.7135C19.7789 10.6113 19.7712 10.5083 19.7692 10.4052V10.3751C19.7594 10.0189 19.829 9.66493 19.9731 9.339C20.0959 9.03891 20.2958 8.77662 20.5526 8.57874C20.7798 8.3953 21.0626 8.29474 21.3546 8.29364H21.3685C21.6582 8.29364 21.9063 8.37708 22.1612 8.56251C22.4237 8.75469 22.6295 9.01414 22.7569 9.31351C22.9029 9.63337 22.9748 9.94629 22.9818 10.3171L22.9841 10.345H22.9818ZM18.601 10.7251C18.374 10.79 18.1577 10.8876 17.9589 11.0148C17.9745 10.8995 17.976 10.7828 17.9635 10.6671V10.6486C17.9494 10.4955 17.9118 10.3454 17.8523 10.2036C17.8046 10.0788 17.7284 9.96687 17.6298 9.87675C17.5935 9.8412 17.5503 9.81357 17.5028 9.79561C17.4553 9.77765 17.4046 9.76977 17.3539 9.77245C17.2566 9.78172 17.1755 9.82808 17.099 9.92311C17.0176 10.0294 16.962 10.1532 16.9367 10.2847C16.9006 10.4403 16.8904 10.6009 16.9066 10.7599V10.7784C16.9199 10.9324 16.9575 11.0834 17.0179 11.2258C17.0733 11.3683 17.1662 11.4932 17.2867 11.5873L17.0503 11.7728L16.8695 11.9026C16.7089 11.7446 16.5827 11.5553 16.4987 11.3463C16.3758 11.0681 16.3086 10.79 16.29 10.4632V10.4609C16.2688 10.1557 16.3042 9.84921 16.3943 9.55688C16.4635 9.30195 16.5968 9.06896 16.7814 8.88006C16.8589 8.79454 16.9533 8.72606 17.0586 8.67897C17.164 8.63189 17.278 8.60722 17.3934 8.60655C17.5881 8.60655 17.7596 8.67145 17.9381 8.81516C18.142 8.98263 18.3006 9.19862 18.3993 9.44331C18.5222 9.72145 18.5847 9.9996 18.6056 10.3287C18.6126 10.4678 18.6126 10.5976 18.601 10.7251Z"/>
</mask>
<path d="M22.9818 10.345V8.99627L21.6333 10.3696L22.9818 10.345ZM22.4834 11.8655L21.9333 13.0969L23.5557 12.6835L22.4834 11.8655ZM21.9781 11.6569L22.4569 10.396L22.4286 10.3856L21.9781 11.6569ZM21.6837 11.5526L20.6452 10.6921L21.2333 12.8238L21.6837 11.5526ZM21.9318 11.2582L23.1739 11.7837L23.1795 11.7703L21.9318 11.2582ZM22.0476 10.695L20.7057 10.5607L20.6991 10.6728L22.0476 10.695ZM22.05 10.6718L23.392 10.806L23.398 10.7135L22.05 10.6718ZM21.9688 10.1248L20.6736 10.5006L20.6909 10.556L21.9688 10.1248ZM21.7185 9.69827L20.7368 10.6231L20.7589 10.6459L21.7185 9.69827ZM21.3569 9.53602L21.3951 8.18787L21.3569 8.18733V9.53602ZM21.3407 9.53602V8.18733L21.322 8.18746L21.3407 9.53602ZM20.9907 9.6751L21.8736 10.6947L21.9026 10.6687L20.9907 9.6751ZM20.7079 10.0807L21.9566 10.5903L21.9699 10.5565L20.7079 10.0807ZM20.592 10.644L19.2436 10.6192L19.2433 10.644H20.592ZM20.592 10.6671L21.94 10.7125L21.9407 10.6671H20.592ZM20.6129 10.9916L20.0477 12.2162L21.9439 10.7741L20.6129 10.9916ZM19.7924 10.7135L18.4552 10.8895L19.4964 12.0293L19.7924 10.7135ZM19.7692 10.4052H18.4205L18.4207 10.4312L19.7692 10.4052ZM19.7692 10.3751H21.1179L21.1174 10.338L19.7692 10.3751ZM19.9731 9.339L21.2067 9.88437L21.2215 9.84952L19.9731 9.339ZM20.5526 8.57874L21.3758 9.6471L21.4 9.62799L20.5526 8.57874ZM21.3546 8.29364L21.3546 6.94494L21.3495 6.94495L21.3546 8.29364ZM22.1612 8.56251L22.9579 7.47424L22.9545 7.47178L22.1612 8.56251ZM22.7569 9.31351L21.5159 9.84155L21.53 9.87361L22.7569 9.31351ZM22.9818 10.3171L21.6333 10.3424L21.6377 10.4292L22.9818 10.3171ZM22.9841 10.345V11.6937L24.3281 10.2329L22.9841 10.345ZM18.601 10.7251L18.972 12.0218L19.9441 10.8472L18.601 10.7251ZM17.9589 11.0148L16.6223 10.8346L18.6857 12.1509L17.9589 11.0148ZM17.9635 10.6671H16.6149L16.6226 10.8117L17.9635 10.6671ZM17.9635 10.6486H19.3122L19.3065 10.5242L17.9635 10.6486ZM17.8523 10.2036L16.5925 10.6852L16.6088 10.7258L17.8523 10.2036ZM17.6298 9.87675L16.6852 10.8394L16.7199 10.8723L17.6298 9.87675ZM17.3539 9.77245L17.2827 8.42563L17.2261 8.42983L17.3539 9.77245ZM17.099 9.92311L16.0483 9.07746L16.0283 9.10295L17.099 9.92311ZM16.9367 10.2847L18.2505 10.5897L18.2612 10.5393L16.9367 10.2847ZM16.9066 10.7599H18.2553L18.2484 10.6232L16.9066 10.7599ZM16.9066 10.7784H15.5579L15.5629 10.8946L16.9066 10.7784ZM17.0179 11.2258L18.2746 10.7364L18.2594 10.699L17.0179 11.2258ZM17.2867 11.5873L18.1191 12.6486L18.1172 10.5247L17.2867 11.5873ZM17.0503 11.7728L17.8369 12.8684L17.8826 12.834L17.0503 11.7728ZM16.8695 11.9026L15.9238 12.8642L17.6561 12.9982L16.8695 11.9026ZM16.4987 11.3463L17.75 10.8432L17.7324 10.8014L16.4987 11.3463ZM16.29 10.4632H14.9413L14.9435 10.5396L16.29 10.4632ZM16.29 10.4609H17.6387L17.6355 10.3673L16.29 10.4609ZM16.3943 9.55688L17.6831 9.95442L17.696 9.91011L16.3943 9.55688ZM16.7814 8.88006L17.7459 9.82284L17.7811 9.78543L16.7814 8.88006ZM17.3934 8.60655V7.25784L17.3855 7.25788L17.3934 8.60655ZM17.9381 8.81516L18.7941 7.77288L18.7839 7.76468L17.9381 8.81516ZM18.3993 9.44331L17.1486 9.94805L17.1656 9.9882L18.3993 9.44331ZM18.6056 10.3287L19.9526 10.2614L19.9516 10.2434L18.6056 10.3287ZM21.6333 10.3696C21.6377 10.6141 21.5595 10.853 21.4111 11.0475L23.5557 12.6835C24.0729 12.0056 24.3458 11.1728 24.3302 10.3204L21.6333 10.3696ZM23.0336 10.6341C22.8436 10.5493 22.6513 10.4699 22.4569 10.396L21.4993 12.9177C21.6457 12.9733 21.7904 13.033 21.9333 13.0969L23.0336 10.6341ZM22.4286 10.3856L22.1342 10.2813L21.2333 12.8238L21.5277 12.9281L22.4286 10.3856ZM22.7223 12.4131C22.691 12.4508 22.6682 12.4716 22.688 12.4523C22.6913 12.449 22.7418 12.4003 22.779 12.3622C22.852 12.2874 23.0461 12.0858 23.1739 11.7837L20.6897 10.7327C20.7111 10.682 20.7336 10.6399 20.7536 10.6068C20.7734 10.5738 20.7918 10.5478 20.806 10.5291C20.8201 10.5104 20.8317 10.4969 20.8386 10.4892C20.8454 10.4814 20.8494 10.4773 20.8487 10.4781C20.8477 10.4791 20.8445 10.4824 20.8358 10.4908C20.8314 10.4952 20.827 10.4994 20.8206 10.5056C20.8148 10.5113 20.8073 10.5186 20.7994 10.5263C20.7841 10.5414 20.7617 10.5635 20.7372 10.5891C20.7129 10.6145 20.6804 10.6497 20.6452 10.6921L22.7223 12.4131ZM23.1795 11.7703C23.3167 11.4358 23.3902 11.0786 23.3962 10.7171L20.6991 10.6728C20.6987 10.698 20.6936 10.7229 20.684 10.7462L23.1795 11.7703ZM23.3896 10.8292L23.392 10.806L20.708 10.5375L20.7057 10.5607L23.3896 10.8292ZM23.398 10.7135C23.4087 10.3672 23.3575 10.0218 23.2467 9.69357L20.6909 10.556C20.699 10.5798 20.7027 10.6049 20.7019 10.63L23.398 10.7135ZM23.2641 9.7489C23.1549 9.37256 22.9535 9.02943 22.6782 8.75061L20.7589 10.6459C20.7188 10.6054 20.6895 10.5554 20.6736 10.5006L23.2641 9.7489ZM22.7002 8.77348C22.5319 8.59481 22.33 8.45112 22.106 8.35062L21.0017 10.8116C20.9019 10.7668 20.8119 10.7027 20.7368 10.6231L22.7002 8.77348ZM22.106 8.35062C21.8821 8.25013 21.6405 8.19482 21.3951 8.18787L21.3187 10.8842C21.2093 10.8811 21.1016 10.8564 21.0017 10.8116L22.106 8.35062ZM21.3569 8.18733H21.3407V10.8847H21.3569V8.18733ZM21.322 8.18746C20.861 8.19386 20.4184 8.3697 20.0787 8.68145L21.9026 10.6687C21.7542 10.805 21.5609 10.8818 21.3594 10.8846L21.322 8.18746ZM20.1078 8.65554C19.8116 8.91202 19.5841 9.23837 19.4459 9.60499L21.9699 10.5565C21.9498 10.6098 21.9167 10.6573 21.8736 10.6947L20.1078 8.65554ZM19.4592 9.57112C19.3233 9.90417 19.2502 10.2595 19.2436 10.6192L21.9405 10.6688C21.941 10.6418 21.9465 10.6153 21.9566 10.5903L19.4592 9.57112ZM19.2433 10.644V10.6671H21.9407V10.644H19.2433ZM19.2441 10.6218C19.2375 10.8184 19.2501 11.0151 19.2819 11.2092L21.9439 10.7741C21.9406 10.7537 21.9393 10.7331 21.94 10.7125L19.2441 10.6218ZM21.1781 9.7671C20.8289 9.60591 20.4636 9.48208 20.0883 9.39768L19.4964 12.0293C19.6862 12.072 19.871 12.1347 20.0477 12.2162L21.1781 9.7671ZM21.1295 10.5376C21.1226 10.4851 21.1186 10.4322 21.1176 10.3793L18.4207 10.4312C18.4237 10.5845 18.4352 10.7375 18.4552 10.8895L21.1295 10.5376ZM21.1179 10.4052V10.3751H18.4205V10.4052H21.1179ZM21.1174 10.338C21.1131 10.182 21.1436 10.0271 21.2067 9.88437L18.7396 8.79364C18.5145 9.3028 18.4057 9.85571 18.421 10.4122L21.1174 10.338ZM21.2215 9.84952C21.2542 9.76962 21.3074 9.69979 21.3758 9.6471L19.7295 7.51038C19.2842 7.85345 18.9376 8.3082 18.7248 8.82849L21.2215 9.84952ZM21.4 9.62799C21.3886 9.63721 21.3743 9.64227 21.3597 9.64233L21.3495 6.94495C20.7509 6.9472 20.1709 7.15338 19.7052 7.52949L21.4 9.62799ZM21.3546 9.64233H21.3685V6.94495H21.3546V9.64233ZM21.3685 9.64233C21.3758 9.64233 21.3751 9.64283 21.3687 9.64181C21.3656 9.64132 21.3618 9.6406 21.3576 9.63955C21.3533 9.63851 21.3492 9.6373 21.3454 9.63602C21.3374 9.63331 21.3341 9.63136 21.3364 9.6326C21.3391 9.63404 21.3494 9.63979 21.368 9.65325L22.9545 7.47178C22.4877 7.13231 21.9656 6.94495 21.3685 6.94495V9.64233ZM21.3646 9.65078C21.4313 9.6996 21.4835 9.7655 21.5159 9.84155L23.9979 8.78547C23.7755 8.26277 23.4162 7.80978 22.9579 7.47425L21.3646 9.65078ZM21.53 9.87361C21.5979 10.0223 21.6297 10.1529 21.6333 10.3424L24.3302 10.2919C24.3199 9.73971 24.208 9.24442 23.9838 8.7534L21.53 9.87361ZM21.6377 10.4292L21.64 10.457L24.3281 10.2329L24.3258 10.2051L21.6377 10.4292ZM22.9841 8.99627H22.9818V11.6937H22.9841V8.99627ZM18.23 9.42843C17.8773 9.52935 17.5411 9.68104 17.2321 9.87873L18.6857 12.1509C18.7744 12.0942 18.8708 12.0507 18.972 12.0218L18.23 9.42843ZM19.2955 11.195C19.3256 10.9721 19.3286 10.7463 19.3045 10.5226L16.6226 10.8117C16.6234 10.8193 16.6233 10.827 16.6223 10.8346L19.2955 11.195ZM19.3122 10.6671V10.6486H16.6149V10.6671H19.3122ZM19.3065 10.5242C19.2796 10.2342 19.2086 9.94994 19.0958 9.68138L16.6088 10.7258C16.6151 10.7408 16.6191 10.7568 16.6206 10.773L19.3065 10.5242ZM19.1121 9.72196C18.9893 9.40094 18.7933 9.11303 18.5396 8.88118L16.7199 10.8723C16.6635 10.8207 16.6198 10.7566 16.5925 10.6852L19.1121 9.72196ZM18.5743 8.91406C18.4047 8.74757 18.2022 8.61818 17.9799 8.5341L17.0258 11.0571C16.8984 11.0089 16.7824 10.9348 16.6852 10.8394L18.5743 8.91406ZM17.9799 8.5341C17.7575 8.45002 17.5201 8.41308 17.2827 8.42563L17.4252 11.1193C17.2892 11.1265 17.1532 11.1053 17.0258 11.0571L17.9799 8.5341ZM17.2261 8.42983C16.6994 8.47998 16.3067 8.75652 16.0483 9.07746L18.1496 10.7688C18.1096 10.8185 18.0297 10.9035 17.9007 10.9791C17.7648 11.0588 17.6187 11.102 17.4818 11.1151L17.2261 8.42983ZM16.0283 9.10295C15.8195 9.37552 15.6771 9.69296 15.6123 10.0301L18.2612 10.5393C18.2469 10.6135 18.2156 10.6833 18.1696 10.7433L16.0283 9.10295ZM15.623 9.97967C15.5533 10.28 15.5336 10.5898 15.5648 10.8965L18.2484 10.6232C18.2472 10.612 18.2479 10.6007 18.2505 10.5897L15.623 9.97967ZM15.5579 10.7599V10.7784H18.2553V10.7599H15.5579ZM15.5629 10.8946C15.5885 11.19 15.6605 11.4796 15.7763 11.7525L18.2594 10.699C18.2545 10.6873 18.2514 10.6749 18.2503 10.6622L15.5629 10.8946ZM15.7611 11.7151C15.9046 12.0836 16.1447 12.4065 16.4562 12.65L18.1172 10.5247C18.1878 10.5798 18.2421 10.6529 18.2746 10.7364L15.7611 11.7151ZM16.4544 10.5261L16.218 10.7115L17.8826 12.834L18.1191 12.6486L16.4544 10.5261ZM16.2637 10.6772L16.0829 10.807L17.6561 12.9982L17.8369 12.8684L16.2637 10.6772ZM17.8152 10.941C17.787 10.9132 17.7648 10.8799 17.75 10.8432L15.2473 11.8494C15.4006 12.2306 15.6309 12.5761 15.9238 12.8642L17.8152 10.941ZM17.7324 10.8014C17.6772 10.6765 17.6463 10.5576 17.6366 10.3868L14.9435 10.5396C14.9709 11.0224 15.0744 11.4598 15.2649 11.8912L17.7324 10.8014ZM17.6387 10.4632V10.4609H14.9413V10.4632H17.6387ZM17.6355 10.3673C17.6258 10.2279 17.6419 10.0879 17.6831 9.95442L15.1056 9.15935C14.9664 9.61049 14.9118 10.0835 14.9446 10.5544L17.6355 10.3673ZM17.696 9.91011C17.7049 9.87724 17.7221 9.8472 17.7459 9.82284L15.817 7.93729C15.4715 8.29072 15.2222 8.72666 15.0927 9.20366L17.696 9.91011ZM17.7811 9.78543C17.733 9.83853 17.6744 9.88104 17.609 9.91027L16.5083 7.44768C16.2322 7.57108 15.9848 7.75055 15.7818 7.97469L17.7811 9.78543ZM17.609 9.91027C17.5436 9.9395 17.4728 9.95481 17.4012 9.95523L17.3855 7.25788C17.0831 7.25964 16.7844 7.32427 16.5083 7.44768L17.609 9.91027ZM17.3934 9.95525C17.334 9.95525 17.2618 9.9441 17.1906 9.91692C17.124 9.89145 17.0904 9.8642 17.0922 9.86565L18.7839 7.76468C18.4055 7.46001 17.9432 7.25786 17.3934 7.25786L17.3934 9.95525ZM17.0821 9.8574C17.1115 9.88156 17.1344 9.91273 17.1486 9.94805L19.65 8.93857C19.4667 8.4845 19.1724 8.0837 18.794 7.77293L17.0821 9.8574ZM17.1656 9.9882C17.2153 10.1008 17.2473 10.2199 17.2596 10.414L19.9516 10.2434C19.9222 9.77928 19.829 9.34211 19.633 8.89841L17.1656 9.9882ZM17.2586 10.3961C17.2635 10.4945 17.2619 10.5575 17.2578 10.603L19.9441 10.8472C19.9632 10.6377 19.9616 10.4411 19.9526 10.2614L17.2586 10.3961Z" fill="black" mask="url(#path-8-inside-2_1_20)"/>
</svg>
