<svg width="40" height="40" viewBox="0 0 40 40" fill="none" xmlns="http://www.w3.org/2000/svg">
<path d="M31.7164 26.1779C32.312 26.6868 32.4825 27.4395 32.5894 27.9117C32.5923 27.9245 32.5951 27.937 32.5979 27.9494C32.598 27.9498 32.5981 27.9502 32.5982 27.9506L32.6021 27.9677C32.6615 28.2251 32.7098 28.4344 32.7676 28.612C32.8285 28.7992 32.8778 28.8772 32.8999 28.9022C33.6054 29.6878 34.086 30.447 34.0394 31.2554C33.9916 32.1287 33.3402 32.6447 32.8348 32.951L32.8337 32.9516C32.5705 33.1105 32.2815 33.2551 32.0024 33.3916C31.9484 33.418 31.8947 33.4441 31.8413 33.4701C31.6112 33.5821 31.3864 33.6915 31.1619 33.8108C30.609 34.1047 30.1326 34.4216 29.788 34.8388L29.7846 34.8429L29.7846 34.8429C28.8005 36.0151 27.5374 36.7467 26.2739 36.8478L26.2724 36.8479C24.9748 36.9488 23.7296 36.3407 23.0726 35.0344L23.0691 35.0296C23.0602 35.0125 23.0515 34.9952 23.0431 34.9779C22.4853 34.9679 21.9692 34.8972 21.5186 34.8323L21.4492 34.8222C20.8705 34.7388 20.4454 34.6774 20.0795 34.7061L20.0648 34.7071C19.415 34.7439 18.8856 34.8398 18.4009 34.9326C18.3659 34.9393 18.3309 34.946 18.2958 34.9528C17.9944 35.0108 17.686 35.0702 17.3793 35.102C17.2015 35.3743 16.9797 35.6163 16.722 35.8178C16.3567 36.1034 15.9296 36.2995 15.475 36.3903C14.2618 36.662 12.8272 36.3728 11.4852 35.6695L11.4831 35.6684C11.0034 35.4148 10.4334 35.2873 9.80045 35.1985C9.60356 35.1709 9.38779 35.1461 9.16624 35.1206C8.73672 35.0712 8.28547 35.0194 7.90795 34.9397M31.7164 26.1779L6.77774 33.503M31.7164 26.1779L31.7147 26.1742C31.6631 26.1295 31.6098 26.0871 31.5548 26.047C31.9903 24.3176 31.7195 22.6296 31.1553 21.1354L31.1549 21.1345C30.3925 19.1232 29.0788 17.3947 28.1025 16.241C27.005 14.855 26.1302 13.75 26.1457 12.1256C26.147 12.0092 26.1488 11.8874 26.1507 11.7608C26.1715 10.3551 26.2011 8.3589 25.6449 6.66881C25.336 5.73029 24.8331 4.83709 24.0092 4.17996C23.1782 3.51715 22.0817 3.14323 20.679 3.14133H20.678C20.4497 3.14133 20.2158 3.15147 19.9744 3.17136C18.42 3.29629 17.2816 3.80967 16.4835 4.60671C15.6935 5.39575 15.3011 6.39903 15.1124 7.39069C14.9242 8.3796 14.9303 9.40155 14.9717 10.2746C14.9879 10.6152 15.0081 10.9208 15.0262 11.1943C15.0569 11.6587 15.0816 12.0305 15.0699 12.324C14.9725 13.6921 14.7058 14.7259 13.7871 16.0393C12.5778 17.4818 10.8449 19.8458 10.0111 22.3496L10.011 22.3498C9.65145 23.4308 9.44679 24.5722 9.55266 25.6927C9.37506 25.8918 9.22288 26.0997 9.09622 26.2732C8.94614 26.4788 8.83787 26.6271 8.73143 26.741C8.68145 26.7891 8.605 26.839 8.46864 26.8972C8.36297 26.9424 8.25958 26.9779 8.12891 27.0229C8.06431 27.0451 7.99303 27.0697 7.91152 27.0988L7.90955 27.0995C7.43955 27.269 6.77224 27.5673 6.37166 28.3386L6.37027 28.3443L6.36999 28.3442C6.1954 28.6849 6.10858 29.0637 6.11731 29.4463C6.11817 29.752 6.16321 30.0495 6.19917 30.2854L6.19938 30.2868L6.20428 30.3185C6.24305 30.5692 6.27509 30.7764 6.28861 30.96C6.30231 31.146 6.29064 31.2426 6.27931 31.2843M31.7164 26.1779L6.91913 31.4981M7.90795 34.9397C7.31628 34.8172 6.56202 34.5595 6.17812 33.8116M7.90795 34.9397C7.90734 34.9396 7.90674 34.9394 7.90613 34.9393L8.04562 34.2795L7.90908 34.9399C7.9087 34.9398 7.90833 34.9398 7.90795 34.9397ZM6.17812 33.8116C6.17796 33.8113 6.17779 33.811 6.17763 33.8106L6.77774 33.503M6.17812 33.8116C6.17817 33.8117 6.17821 33.8118 6.17826 33.8119L6.77774 33.503M6.17812 33.8116C5.80731 33.0915 5.93728 32.2286 6.27931 31.2843M6.77774 33.503C6.54132 33.0441 6.58536 32.4136 6.91913 31.4981M6.27931 31.2843C6.27858 31.287 6.27785 31.2895 6.27713 31.2917L6.91913 31.4981M6.27931 31.2843C6.28139 31.2786 6.28348 31.2729 6.28557 31.2671L6.91913 31.4981" stroke="black" stroke-width="1.34869" stroke-linejoin="bevel"/>
<path d="M16.0872 33.5019L16.0882 33.4817C16.099 33.3715 16.0634 33.1672 15.9049 32.8472C15.7526 32.5395 15.521 32.1927 15.2381 31.8218L16.0872 33.5019ZM16.0872 33.5019L16.087 33.5019C16.057 33.8853 15.9403 34.125 15.7967 34.2834C15.6498 34.4454 15.4251 34.577 15.0888 34.654C14.4183 34.8069 13.401 34.6654 12.3123 34.0981C11.556 33.697 10.7494 33.527 10.0433 33.4274C9.75941 33.3873 9.48004 33.3573 9.22663 33.33C9.16553 33.3235 9.10593 33.3171 9.04815 33.3107C8.7409 33.277 8.48621 33.2451 8.27263 33.2004L8.27201 33.2003C8.05209 33.1544 7.91747 33.1058 7.83691 33.0619C7.79942 33.0415 7.78014 33.0255 7.77116 33.0169C7.76401 33.01 7.76117 33.0057 7.75944 33.0025C7.74428 32.9708 7.65479 32.6975 7.95662 31.8713L7.95815 31.8627L7.9668 31.8416C8.16144 31.2434 8.05413 30.6007 7.98262 30.1725C7.97333 30.1169 7.96465 30.0649 7.95731 30.0171L7.95724 30.0166C7.92021 29.7765 7.89906 29.5836 7.90076 29.4261C7.90248 29.2663 7.92792 29.1963 7.94056 29.1728L7.93981 29.1723L7.94717 29.1623C8.04295 28.9779 8.15398 28.9018 8.50939 28.7751L8.5094 28.7751L8.51387 28.7734C8.55728 28.7576 8.60862 28.7406 8.66622 28.7214C9.00545 28.6088 9.56193 28.424 9.9949 27.9911C9.99496 27.991 9.99502 27.991 9.99508 27.9909L9.99722 27.9888L10.0113 27.9743C10.2155 27.7576 10.3899 27.5203 10.5334 27.3244L10.5356 27.3214C10.6879 27.1135 10.8023 26.9573 10.9188 26.8327C11.0237 26.7211 11.0957 26.6645 11.1518 26.6334C11.1976 26.6081 11.2459 26.5921 11.3217 26.5914H11.3272C11.3641 26.5919 11.4009 26.5951 11.4374 26.6011L11.4373 26.6012L11.4464 26.6025C11.6875 26.6387 11.9827 26.8153 12.3594 27.3143L13.5552 29.4928L13.5553 29.4932C13.7527 29.9047 14.0459 30.3124 14.3388 30.6894C14.4736 30.8631 14.615 31.0385 14.7531 31.2098C14.7672 31.2273 14.7813 31.2448 14.7953 31.2622C14.9481 31.4519 15.0968 31.6371 15.238 31.8217L16.0872 33.5019ZM32.1657 30.8871C32.259 31.0653 32.2625 31.1452 32.2628 31.1513L32.2625 31.156C32.2598 31.1607 32.2537 31.17 32.2416 31.184C32.1971 31.2357 32.1036 31.3155 31.9162 31.4282L31.9152 31.4287C31.7339 31.5381 31.5081 31.6493 31.2285 31.7832C31.196 31.7987 31.1629 31.8145 31.1293 31.8306C30.8825 31.9484 30.6054 32.0807 30.3256 32.2297C29.6897 32.5682 28.984 33.0206 28.4217 33.7022C27.6707 34.5931 26.8073 35.0204 26.1285 35.0749C25.7885 35.1011 25.5058 35.0422 25.276 34.9164C25.0481 34.7916 24.8305 34.5785 24.6545 34.2264L24.6524 34.2275L24.6477 34.2085C24.5878 34.095 24.5436 33.8904 24.5639 33.5541C24.5838 33.2264 24.6605 32.8388 24.7749 32.409C24.8433 32.1517 24.9118 31.9217 24.9825 31.6843C25.0395 31.4926 25.098 31.2962 25.1591 31.0766C25.2827 30.6323 25.3966 30.1578 25.4244 29.7091L25.4245 29.7091L25.4249 29.6999C25.4718 28.7259 25.5264 27.9546 25.6697 27.3838L25.6698 27.3833C25.6739 27.3669 25.678 27.3508 25.6822 27.335C25.6894 27.3477 25.6967 27.3604 25.7042 27.3729C25.9676 27.8182 26.3823 28.2231 26.9663 28.3712C27.5927 28.5343 28.2562 28.3374 28.7554 28.0982C29.1654 27.9017 29.5557 27.6332 29.8549 27.3517L29.862 27.3514C29.8626 27.3514 29.8633 27.3514 29.8639 27.3514C30.2416 27.3412 30.3795 27.3711 30.5493 27.5183L30.5492 27.5183L30.5564 27.5244C30.5785 27.543 30.6302 27.602 30.6932 27.7576C30.7553 27.9106 30.8082 28.1052 30.8649 28.3499C30.8753 28.3953 30.886 28.4445 30.8975 28.497C30.9924 28.9333 31.1362 29.5942 31.5713 30.0847L31.5738 30.0875C31.8839 30.4333 32.0658 30.6965 32.1657 30.8871Z" stroke="#F8BF11" stroke-width="1.34869" stroke-linejoin="bevel"/>
<path d="M22.0026 12.6576L22.0026 12.6574C21.7293 12.5402 21.5263 12.4703 21.3346 12.4042C21.2932 12.39 21.2524 12.3759 21.2115 12.3616C20.9778 12.2797 20.7402 12.1887 20.4723 12.0153L22.0026 12.6576ZM22.0026 12.6576L22.0145 12.6624M22.0026 12.6576L22.0145 12.6624M22.0145 12.6624C22.2404 12.7543 22.3023 12.8407 22.3151 12.8626C22.3187 12.8713 22.3208 12.8806 22.3211 12.8901C22.3214 12.9011 22.3193 12.9121 22.315 12.9223L22.3046 12.9483M22.0145 12.6624L22.3046 12.9483M22.3046 12.9483C22.2344 13.1356 21.9133 13.4911 21.2955 13.6841L21.2955 13.6841M22.3046 12.9483L21.2955 13.6841M21.2955 13.6841L21.2871 13.6868M21.2955 13.6841L21.2871 13.6868M21.2871 13.6868C21.0271 13.7718 20.8024 13.9013 20.6192 14.0156C20.5386 14.0659 20.4708 14.1099 20.4079 14.1508C20.3084 14.2153 20.2211 14.272 20.1142 14.3335C19.8071 14.5079 19.5181 14.6197 19.1221 14.5957L19.1203 14.5956M21.2871 13.6868L19.1203 14.5956M19.1203 14.5956C18.9534 14.586 18.8371 14.5541 18.748 14.5161C18.6485 14.472 18.5555 14.4143 18.4718 14.3446L18.4718 14.3445M19.1203 14.5956L18.4718 14.3445M18.4718 14.3445L18.4614 14.3362M18.4718 14.3445L18.4614 14.3362M18.4614 14.3362C18.3876 14.2773 18.3263 14.2215 18.2491 14.1513C18.2056 14.1117 18.157 14.0675 18.0984 14.0156C17.9529 13.887 17.773 13.7379 17.5496 13.607L17.5496 13.6069M18.4614 14.3362L17.5496 13.6069M17.5496 13.6069L17.541 13.602M17.5496 13.6069L17.541 13.602M17.541 13.602C17.0861 13.3443 16.951 13.1066 16.9268 13.0266C16.9253 13.0217 16.9241 13.0174 16.9232 13.0136C16.9286 13.0088 16.9357 13.0028 16.9451 12.996L16.9451 12.996M17.541 13.602L16.9451 12.996M16.9451 12.996L16.9516 12.9911M16.9451 12.996L16.9516 12.9911M16.9516 12.9911C17.2532 12.7637 17.4558 12.613 17.5875 12.5186L17.5993 12.51M16.9516 12.9911L17.5993 12.51M17.5993 12.51C17.6321 12.4854 17.6601 12.4646 17.6851 12.4461C17.6888 12.4434 17.6925 12.4407 17.6962 12.438C17.7165 12.423 17.7367 12.4081 17.7546 12.3947C17.7959 12.3637 17.8464 12.3249 17.8985 12.2756C17.9304 12.2456 17.962 12.2154 17.9935 12.1853C18.2276 11.9619 18.4564 11.7434 18.788 11.631L18.788 11.631M17.5993 12.51L18.788 11.631M18.788 11.631L18.7947 11.6287M18.788 11.631L18.7947 11.6287M18.7947 11.6287C18.9261 11.5826 19.0643 11.5586 19.2036 11.5578M18.7947 11.6287L19.2036 11.5578M19.2036 11.5578C19.495 11.5581 19.9093 11.6514 20.4721 12.0152L19.2036 11.5578Z" stroke="#F8BF11" stroke-width="1.34869" stroke-linejoin="bevel"/>
<path d="M16.8805 31.0469C16.9642 30.9904 17.042 30.9252 17.1127 30.8523L16.6283 30.3831L17.1127 30.8523C17.2502 30.7104 17.3575 30.542 17.4281 30.3575L17.4281 30.3575L17.4306 30.3508C17.6987 29.6274 17.3806 28.8242 16.8723 28.1393C16.3395 27.4161 15.4749 26.6512 14.2679 25.9089C13.9716 25.7235 13.7351 25.5269 13.5474 25.3228L14.0187 25.173C14.0532 23.959 14.3421 22.7078 14.8377 21.534C14.9577 21.2616 15.1061 20.9422 15.2695 20.5904C15.5967 19.8858 15.9842 19.0514 16.3253 18.2053C16.6896 17.302 17.0284 16.324 17.2208 15.3663C17.2959 15.4339 17.3791 15.5071 17.4636 15.5754C17.9589 15.9909 18.5893 16.2105 19.2356 16.1928C19.9457 16.1905 20.4929 15.953 20.9078 15.7151C21.0634 15.6271 21.2174 15.5289 21.343 15.4489C21.3889 15.4196 21.431 15.3928 21.468 15.3698C21.6284 15.2699 21.719 15.224 21.7814 15.204C22.0848 15.1084 22.3723 14.98 22.6325 14.8229C23.2079 16.6575 24.1167 18.8165 24.7434 19.9822L24.7437 19.9826C25.1154 20.6727 25.8329 22.0969 26.1518 23.7996C26.0049 23.8809 25.8684 23.9872 25.7483 24.1219C25.5469 24.348 25.4201 24.6223 25.3507 24.9213C24.5351 25.3671 24.144 26.1543 23.9459 26.952L16.8805 31.0469ZM16.8805 31.0469C16.9717 31.172 17.061 31.2994 17.1464 31.4283C19.1333 32.711 21.4821 32.2789 23.3126 31.0541C23.493 30.432 23.6288 29.9489 23.6512 29.6029M16.8805 31.0469L23.6512 29.6029M23.6512 29.6029C23.6991 28.6549 23.7513 27.7331 23.9458 26.9522L23.6512 29.6029ZM16.6518 30.7419C16.592 30.6638 16.5318 30.5859 16.4713 30.5084L16.6523 30.7426C16.6521 30.7424 16.6519 30.7421 16.6518 30.7419Z" stroke="black" stroke-width="1.34869" stroke-linejoin="bevel"/>
<path d="M22.8796 21.9448C23.6681 22.6224 24.3584 23.5885 24.8745 24.7734C24.1391 25.2992 23.7651 26.0983 23.5755 26.8612C23.3669 27.6957 23.317 28.6365 23.2691 29.5823C23.253 29.8318 23.143 30.2561 22.9844 30.8147C21.2789 31.9109 19.1901 32.2661 17.4032 31.1475C17.3954 31.1359 17.3876 31.1243 17.3798 31.1128C17.5493 30.9368 17.6841 30.7275 17.7743 30.4954L17.7744 30.4954L17.7778 30.4862C18.1155 29.5785 17.7204 28.6594 17.1711 27.9169C16.6726 27.2425 15.9196 26.5587 14.9264 25.8965C15.3871 24.4135 16.103 23.1683 16.9803 22.2834L16.9813 22.2824C17.942 21.3092 19.0355 20.8277 20.1135 20.8233C21.0553 20.8297 22.0101 21.1997 22.8796 21.9448Z" stroke="black" stroke-width="1.34869" stroke-linejoin="bevel"/>
<path d="M21.3569 8.96799H21.3685C21.37 8.96799 21.3715 8.96799 21.373 8.968C21.5068 8.96869 21.6167 9.00054 21.7637 9.10724C21.7644 9.10776 21.7651 9.10828 21.7658 9.1088L21.3569 8.96799Z" stroke="black" stroke-width="1.34869" stroke-linejoin="bevel"/>
</svg>
