<svg width="40" height="40" viewBox="0 0 40 40" fill="none" xmlns="http://www.w3.org/2000/svg">
<path d="M29.7293 14.4359C29.4983 15.6318 28.9479 16.5966 28.0782 17.3305C27.2221 18.0643 26.0738 18.4312 24.6333 18.4312C23.8859 18.4312 23.1861 18.3157 22.5338 18.0847C21.8951 17.8536 21.3379 17.5207 20.8623 17.0859C20.3867 16.651 20.013 16.1142 19.7412 15.4755C19.4694 14.8368 19.3335 14.1098 19.3335 13.2944V13.0498C19.3335 12.2345 19.4694 11.5006 19.7412 10.8484C20.013 10.1961 20.3867 9.63891 20.8623 9.17688C21.3515 8.71484 21.9155 8.36152 22.5542 8.11691C23.2065 7.8723 23.8995 7.75 24.6333 7.75C26.0466 7.75 27.1881 8.11691 28.0578 8.85073C28.9412 9.58456 29.4983 10.5494 29.7293 11.7453L27.2017 12.3975C27.1202 11.7996 26.862 11.2832 26.4271 10.8484C25.9923 10.4135 25.3808 10.1961 24.5926 10.1961C24.2257 10.1961 23.8791 10.264 23.553 10.3999C23.2269 10.5358 22.9415 10.7329 22.6969 10.991C22.4523 11.2357 22.2552 11.5414 22.1057 11.9083C21.9698 12.2617 21.9019 12.6625 21.9019 13.111V13.2333C21.9019 13.6817 21.9698 14.0826 22.1057 14.4359C22.2552 14.7757 22.4523 15.061 22.6969 15.2921C22.9415 15.5231 23.2269 15.6997 23.553 15.822C23.8791 15.9308 24.2257 15.9851 24.5926 15.9851C25.3808 15.9851 25.9787 15.7881 26.3864 15.394C26.8076 14.9999 27.0794 14.4699 27.2017 13.804L29.7293 14.4359Z" fill="black"/>
<path d="M12.2337 18.1458H9.66531V11.0522C9.66531 10.7668 9.59057 10.5562 9.44108 10.4203C9.30519 10.2708 9.12173 10.1961 8.89072 10.1961C8.61893 10.1961 8.4015 10.2776 8.23843 10.4407C8.08895 10.6038 8.01421 10.8484 8.01421 11.1745V18.1458H5.44583V11.0522C5.44583 10.7668 5.36429 10.5562 5.20122 10.4203C5.05174 10.2708 4.86828 10.1961 4.65085 10.1961C4.40625 10.1961 4.20241 10.2776 4.03934 10.4407C3.87626 10.6038 3.79473 10.8484 3.79473 11.1745V18.1458H1.22635V8.03538H3.79473V9.01381H4.16164C4.24317 8.64689 4.42663 8.34793 4.71201 8.11691C5.01097 7.8723 5.39827 7.75 5.87389 7.75C6.32234 7.75 6.70284 7.8723 7.01539 8.11691C7.32795 8.34793 7.53858 8.64689 7.64729 9.01381H8.01421C8.12292 8.64689 8.34714 8.34793 8.68688 8.11691C9.0402 7.8723 9.47506 7.75 9.99145 7.75C10.6709 7.75 11.2145 7.98102 11.6222 8.44306C12.0298 8.8915 12.2337 9.51661 12.2337 10.3184V18.1458Z" fill="black"/>
<path d="M32.7144 29.5994H33.2037L35.8943 25.8896H38.7073V26.0119L35.4459 30.639V31.0059L39.0335 35.8777V36H36.0982L33.2037 32.0455H32.7144V36H30.1461V21.7312H32.7144V29.5994Z" fill="black"/>
<path d="M11.8566 25.8896H14.8531V21.7312H17.4215V25.8896H21.0702V28.3356H17.4215V32.9424C17.4215 33.3501 17.6049 33.5539 17.9718 33.5539H20.7033V36H16.4226C15.9606 36 15.5801 35.8505 15.2811 35.5516C14.9958 35.2526 14.8531 34.8721 14.8531 34.4101V28.3356H11.8566V25.8896Z" fill="black"/>
</svg>
