<svg width="40" height="40" viewBox="0 0 40 40" fill="none" xmlns="http://www.w3.org/2000/svg">
<path d="M32.525 15.0179C32.525 14.5208 32.1221 14.1179 31.625 14.1179H24.8067L27.5641 11.3605C27.9155 11.009 27.9155 10.4392 27.5641 10.0877L25.215 7.7386C25.0462 7.56981 24.8173 7.47499 24.5786 7.475C24.3399 7.47501 24.1109 7.56984 23.9422 7.73865L19.2393 12.4421V8.375C19.2393 7.87794 18.8363 7.475 18.3393 7.475H15.0179C14.5208 7.475 14.1179 7.87794 14.1179 8.375V15.1933L11.3605 12.4359C11.009 12.0845 10.4392 12.0845 10.0877 12.4359L7.7386 14.785C7.56981 14.9538 7.47499 15.1827 7.475 15.4214C7.47501 15.6601 7.56984 15.8891 7.73865 16.0578L12.4421 20.7607H8.375C7.87794 20.7607 7.475 21.1637 7.475 21.6607V24.9821C7.475 25.4792 7.87794 25.8821 8.375 25.8821H15.1933L12.4359 28.6395C12.0845 28.9909 12.0845 29.5607 12.4358 29.9122L14.7841 32.2613C14.9528 32.4301 15.1818 32.525 15.4205 32.525C15.6592 32.525 15.8882 32.4302 16.057 32.2614L20.7607 27.5577V31.625C20.7607 32.1221 21.1637 32.525 21.6607 32.525H24.9821C25.4792 32.525 25.8821 32.1221 25.8821 31.625V24.8067L28.6395 27.5641C28.9909 27.9155 29.5607 27.9155 29.9122 27.5642L32.2613 25.2159C32.4301 25.0472 32.525 24.8182 32.525 24.5795C32.525 24.3408 32.4302 24.1118 32.2614 23.943L27.5577 19.2393H31.625C32.1221 19.2393 32.525 18.8363 32.525 18.3393V15.0179Z" stroke="black" stroke-width="1.8" stroke-linejoin="round"/>
<rect x="19.0312" y="19.0312" width="1.9375" height="1.9375" rx="0.96875" stroke="black" stroke-width="2.5"/>
</svg>
