<svg width="40" height="40" viewBox="0 0 40 40" fill="none" xmlns="http://www.w3.org/2000/svg">
<path d="M13.179 24.8824C12.269 24.4076 11.1928 24.2396 10.1129 24.4816C7.68584 25.0255 6.15919 27.4338 6.70302 29.8609C7.24686 32.288 9.65524 33.8146 12.0823 33.2708C14.5094 32.727 16.036 30.3186 15.4922 27.8915C15.4049 27.5019 15.2696 27.1356 15.0938 26.7972M13.179 24.8824L23.0738 14.9875C23.5727 15.7479 24.2315 16.3955 25.0028 16.8835L15.0938 26.7972M13.179 24.8824C13.9858 25.3033 14.6619 25.9656 15.0938 26.7972M22.387 12.0823C22.387 9.06519 24.8521 6.61932 27.8931 6.61932H29.049L25.3268 11.4764L28.4605 14.6101L33.3176 10.888C33.4179 11.1631 33.4137 11.7988 33.3991 12.0823C33.3991 13.6109 32.7664 14.9929 31.7465 15.9844C30.7534 16.95 29.3933 17.5453 27.8931 17.5453C26.805 17.5453 25.7906 17.2322 24.9366 16.6918C24.2722 16.2715 23.7049 15.7136 23.2752 15.0587C22.7134 14.2024 22.387 13.1802 22.387 12.0823Z" stroke="#F4BB00" stroke-width="2" stroke-linecap="square" stroke-linejoin="bevel"/>
<path d="M10.7279 25.0538L10.4179 26.0045L10.7279 25.0538C10.353 24.9315 9.94121 25.0237 9.65422 25.2944L10.3403 26.0219L9.65422 25.2944L8.62453 26.2654L7.57173 27.2113L7.57173 27.2113C7.27833 27.4749 7.15238 27.8777 7.24323 28.2615L7.56931 29.6387L7.86211 31.0234L8.84048 30.8165L7.86211 31.0234C7.94371 31.4093 8.22954 31.7198 8.60731 31.833L8.89434 30.8751L8.60732 31.833L9.96309 32.2392L11.3087 32.678C11.6837 32.8003 12.0955 32.708 12.3824 32.4374L11.6963 31.7099L12.3824 32.4374L13.4121 31.4664L14.4649 30.5205L14.4649 30.5205C14.7583 30.2569 14.8842 29.8541 14.7934 29.4703C14.7934 29.4703 14.7934 29.4703 14.7934 29.4703L14.4673 28.0931L14.1745 26.7084L14.1745 26.7084C14.0929 26.3225 13.8071 26.012 13.4293 25.8988L12.0735 25.4926L10.7279 25.0538Z" stroke="#F4BB00" stroke-width="2" stroke-linecap="square" stroke-linejoin="bevel"/>
</svg>
