<svg width="40" height="41" viewBox="0 0 40 41" fill="none" xmlns="http://www.w3.org/2000/svg">
<path fill-rule="evenodd" clip-rule="evenodd" d="M28.4062 16.0019V15.3319H28.404C28.4055 15.3016 28.4062 15.2711 28.4062 15.2404C28.4062 14.2296 27.5869 13.4103 26.5761 13.4103C26.5454 13.4103 26.5149 13.411 26.4846 13.4125V13.4103L23.0989 13.4103C23.0989 12.9734 23.2724 12.5545 23.5813 12.2456C23.8902 11.9367 24.3091 11.7632 24.746 11.7632C25.1503 11.7632 25.478 11.3125 25.478 10.7566C25.478 10.2007 25.1503 9.75002 24.746 9.75002C23.7752 9.75002 22.8442 10.1356 22.1578 10.8221C21.4714 11.5085 21.0857 12.4395 21.0857 13.4103L19.3471 13.4103V13.4125C19.3168 13.411 19.2863 13.4103 19.2556 13.4103C18.2449 13.4103 17.4255 14.2296 17.4255 15.2404C17.4255 15.2711 17.4262 15.3016 17.4277 15.3319H17.4255V15.5897C15.6288 15.8793 14.0033 16.3381 12.6377 16.9249C12.2229 15.9354 11.2451 15.2404 10.105 15.2404C8.58885 15.2404 7.35979 16.4694 7.35979 17.9856C7.35979 18.93 7.83674 19.7631 8.56293 20.257C8.41317 20.5891 8.31975 20.9308 8.28751 21.2798H5.62771C5.80548 20.9459 5.92046 20.4144 5.92046 19.8157C5.92046 18.8049 5.59271 17.9856 5.18841 17.9856C4.78411 17.9856 4.45636 18.8049 4.45636 19.8157C4.45636 20.4144 4.57134 20.9459 4.74911 21.2798H4.45636V22.0118H4.7491C4.57134 22.3457 4.45636 22.8773 4.45636 23.4759C4.45636 24.4867 4.78411 25.3061 5.18841 25.3061C5.59271 25.3061 5.92046 24.4867 5.92046 23.4759C5.92046 22.8773 5.80548 22.3457 5.62771 22.0118H8.31011C8.36179 22.346 8.46963 22.673 8.6293 22.9908C7.86594 23.4784 7.35979 24.3331 7.35979 25.3061C7.35979 26.8222 8.58885 28.0512 10.105 28.0512C11.3046 28.0512 12.3245 27.2818 12.698 26.2095C15.1243 27.2396 18.3582 27.8682 21.9093 27.8682C29.4394 27.8682 35.5437 25.0414 35.5437 21.5543C35.5437 19.1566 32.6575 17.071 28.4062 16.0019ZM16.3274 22.7439C17.7425 22.7439 18.8896 21.8016 18.8896 20.6393C18.8896 19.4769 17.7425 18.5346 16.3274 18.5346C14.9124 18.5346 13.7652 19.4769 13.7652 20.6393C13.7652 21.8016 14.9124 22.7439 16.3274 22.7439ZM23.6479 22.7439C25.063 22.7439 26.2101 21.8016 26.2101 20.6393C26.2101 19.4769 25.063 18.5346 23.6479 18.5346C22.2329 18.5346 21.0857 19.4769 21.0857 20.6393C21.0857 21.8016 22.2329 22.7439 23.6479 22.7439ZM33.5306 20.6393C33.5306 21.8016 32.3834 22.7439 30.9684 22.7439C29.5534 22.7439 28.4062 21.8016 28.4062 20.6393C28.4062 19.4769 29.5534 18.5346 30.9684 18.5346C32.3834 18.5346 33.5306 19.4769 33.5306 20.6393Z" stroke="black" stroke-width="1.25"/>
</svg>
