<svg width="66" height="66" viewBox="0 0 45 45" fill="none" xmlns="http://www.w3.org/2000/svg">
<path d="M10.619 31.3445L26.4744 34.7179L36.8767 37.3852C40.4733 38.3074 43.9744 35.5908 43.9744 31.8778C43.9744 28.7378 41.4289 26.1923 38.2889 26.1923H35.4487L34.9123 17.8771C34.6925 14.47 32.5007 11.5062 29.3075 10.2979C26.788 9.34459 24.1822 9.6376 22.0637 10.795C19.4949 12.1985 17.6428 14.8729 17.5302 18.1374L17.5 19.0128L12.9632 18.3407C11.4741 18.1201 10.0416 18.4121 8.83055 19.0745C6.79454 20.188 5.38464 22.3484 5.38464 24.8793C5.38464 27.9997 7.56688 30.6951 10.619 31.3445Z" fill="#F4BB00"/>
<path d="M35.4487 26.1923L34.9123 17.8771C34.6925 14.47 32.5007 11.5062 29.3075 10.2979V10.2979C23.733 8.18862 17.7356 12.1807 17.5302 18.1374L17.5 19.0128L12.9632 18.3407C8.97055 17.7492 5.38464 20.843 5.38464 24.8793V24.8793C5.38464 27.9997 7.56688 30.6951 10.619 31.3445L26.4744 34.7179L36.8767 37.3852C40.4733 38.3074 43.9744 35.5908 43.9744 31.8778V31.8778C43.9744 28.7378 41.4289 26.1923 38.2889 26.1923H35.4487ZM35.4487 26.1923L30.9616 27.9872M39.9359 37.4103L36.3462 38.7564M22.8846 10.4872L19.2949 11.8333M8.97439 19.0128L5.83336 20.359" stroke="black"/>
<path d="M6.1318 33.1393L21.9872 36.5128L32.3895 39.1801C35.9862 40.1023 39.4872 37.3857 39.4872 33.6727C39.4872 30.5327 36.9417 27.9872 33.8017 27.9872H30.9616L30.4251 19.6719C30.2053 16.2648 28.0135 13.301 24.8203 12.0928C19.2458 9.98348 13.2484 13.9756 13.043 19.9323L13.0128 20.8077L8.47605 20.1356C4.48337 19.5441 0.897461 22.6379 0.897461 26.6741C0.897461 29.7945 3.07969 32.4899 6.1318 33.1393Z" fill="#FFF263" stroke="black"/>
</svg>
