<svg width="66" height="66" viewBox="0 0 46 46" fill="none" xmlns="http://www.w3.org/2000/svg">
<path d="M7.76831 12.9815L1.33388 18.7276L2.48638 23.0498M7.76831 12.9815L8.89596 17.744M7.76831 12.9815L12.0905 12.1185M2.48638 23.0498L3.6389 27.3721M2.48638 23.0498L8.89596 17.744M8.89596 17.744L10.0236 22.5066M12.0905 12.1185L12.7691 14.6635M12.0905 12.1185L21.6131 10.2172M12.2789 32.0316L10.0236 22.5066M12.2789 32.0316L17.0895 30.8663M12.2789 32.0316L16.045 33.351M12.2789 32.0316L4.96842 30.2241M10.0236 22.5066L3.6389 27.3721M17.0895 30.8663L16.6485 29.2125M17.0895 30.8663L22.4347 29.5714M16.045 33.351L43.3024 26.7364M16.045 33.351L17.3415 38.2135M4.96842 30.2241L4.35922 30.0735L3.6389 27.3721M4.96842 30.2241L6.18742 34.7957L17.3415 38.2135M12.7691 14.6635L10.6152 15.1217L13.9733 29.8496L16.6485 29.2125M12.7691 14.6635L22.2603 12.6442M21.6131 10.2172L22.2603 12.6442M21.6131 10.2172L34.7822 7.58775L38.8767 25.0128M16.6485 29.2125L21.9992 27.9382M22.2603 12.6442L33.2319 10.31L36.4459 24.4976L21.9992 27.9382M21.9992 27.9382L22.4347 29.5714M38.8767 25.0128L39.0046 25.5573L22.4347 29.5714M38.8767 25.0128L43.3024 26.7364M43.3024 26.7364L44.5989 31.5989L17.3415 38.2135" stroke="black" stroke-width="1.2"/>
<path d="M1.33388 18.7276L7.76831 12.9815L12.0905 12.1185L21.6131 10.2172L34.7822 7.58775L38.8767 25.0128L43.3024 26.7364L44.5989 31.5989L17.3415 38.2135L6.18742 34.7957L4.96842 30.2241L4.35922 30.0735L3.6389 27.3721L10.0236 22.5066L12.2789 32.0316L17.0895 30.8663L16.6485 29.2125L13.9733 29.8496L10.6152 15.1217L12.7691 14.6635L12.0905 12.1185L7.76831 12.9815L8.89596 17.744L2.48638 23.0498L1.33388 18.7276Z" fill="#101820"/>
<path d="M7.76831 12.9815L1.33388 18.7276L2.48638 23.0498L8.89596 17.744L7.76831 12.9815ZM7.76831 12.9815L12.0905 12.1185M12.0905 12.1185L12.7691 14.6635M12.0905 12.1185L21.6131 10.2172M12.2789 32.0316L10.0236 22.5066L3.6389 27.3721L4.35922 30.0735L4.96842 30.2241M12.2789 32.0316L17.0895 30.8663M12.2789 32.0316L16.045 33.351M12.2789 32.0316L4.96842 30.2241M4.96842 30.2241L6.18742 34.7957L17.3415 38.2135M17.0895 30.8663L16.6485 29.2125M17.0895 30.8663L22.4347 29.5714M16.045 33.351L43.3024 26.7364M16.045 33.351L17.3415 38.2135M12.7691 14.6635L10.6152 15.1217L13.9733 29.8496L16.6485 29.2125M12.7691 14.6635L22.2603 12.6442M21.6131 10.2172L22.2603 12.6442M21.6131 10.2172L34.7822 7.58775L38.8767 25.0128M16.6485 29.2125L21.9992 27.9382M22.2603 12.6442L33.2319 10.31L36.4459 24.4976L21.9992 27.9382M21.9992 27.9382L22.4347 29.5714M38.8767 25.0128L39.0046 25.5573L22.4347 29.5714M38.8767 25.0128L43.3024 26.7364M43.3024 26.7364L44.5989 31.5989L17.3415 38.2135" stroke="black" stroke-width="1.2"/>
<path d="M12.2789 32.0319L17.0896 30.8665L22.4347 29.5717L39.0047 25.5576L38.8767 25.0131L43.3024 26.7367L16.045 33.3513L12.2789 32.0319Z" fill="white" stroke="black" stroke-width="1.2" stroke-linejoin="bevel"/>
<path d="M10.0235 22.5069L12.2788 32.0319L17.0894 30.8666L16.6485 29.2128L13.9732 29.8499L10.6151 15.122L12.7691 14.6638L12.0904 12.1188L7.76822 12.9818L8.89587 17.7443L10.0235 22.5069Z" fill="#B2B4B4"/>
<path d="M36.4458 24.498L33.2318 10.3104L22.2602 12.6445L21.613 10.2175L34.7821 7.58806L38.8766 25.0131L39.0045 25.5576L22.4346 29.5717L21.9991 27.9385L36.4458 24.498Z" fill="#B2B4B4"/>
<path d="M7.76822 12.9818L8.89587 17.7443M7.76822 12.9818L12.0904 12.1188L12.7691 14.6638L10.6151 15.122L13.9732 29.8499L16.6485 29.2128L17.0894 30.8666L12.2788 32.0319M7.76822 12.9818L12.2788 32.0319M7.76822 12.9818L10.0235 22.5069M8.89587 17.7443L12.2788 32.0319M8.89587 17.7443L10.0235 22.5069M12.2788 32.0319L10.0235 22.5069M34.7821 7.58806L21.613 10.2175L22.2602 12.6445L33.2318 10.3104L36.4458 24.498L21.9991 27.9385L22.4346 29.5717L39.0045 25.5576L38.8766 25.0131L34.7821 7.58806Z" stroke="black" stroke-width="1.2"/>
<path d="M2.83449 21.9782L2.02018 18.9243L7.407 14.1138L8.2146 17.5246L2.83449 21.9782ZM5.12184 29.641L4.86049 29.5764L4.33373 27.6008L9.6425 23.5553L11.4542 31.2067L5.12184 29.641Z" fill="white" stroke="black" stroke-width="1.2"/>
<path d="M13.0986 32.972L13.8189 35.6734L5.71052 30.8735L13.0986 32.972Z" fill="#B1B3B3"/>
<path d="M43.6351 30.1184L17.441 36.4524L16.7206 33.751L42.9147 27.417L43.2029 28.4976L22.3251 33.4287L22.6132 34.5092L43.4911 29.5781L43.6351 30.1184Z" fill="#B1B3B3"/>
<path d="M10.0235 22.5066L3.63878 27.3721L2.48628 23.0498L8.89585 17.7441L10.0235 22.5066Z" fill="#D9D9D9" stroke="black" stroke-width="1.2"/>
<path d="M10.6151 15.1219L13.9732 29.8497L16.6485 29.2126L21.9991 27.9383L36.4459 24.4978L33.2318 10.3102L22.2603 12.6444L12.7691 14.6636L10.6151 15.1219Z" fill="white" stroke="black" stroke-width="1.2"/>
<path d="M21.8912 19.5858C21.766 19.6143 21.6797 19.669 21.6342 19.7484C21.5924 19.8214 21.5795 19.9222 21.5958 20.0483L22.3652 19.8731C22.3233 19.7472 22.268 19.6605 22.2 19.615C22.1263 19.5658 22.0223 19.5559 21.8912 19.5858Z" fill="#101820"/>
<path d="M29.7587 18.6568C29.6852 18.617 29.5809 18.6119 29.4483 18.6421C29.3158 18.6723 29.2249 18.7218 29.1755 18.7896C29.1534 18.8223 29.1382 18.8593 29.1311 18.8983C29.1239 18.9374 29.125 18.9776 29.1339 19.0164C29.1429 19.0552 29.1597 19.0918 29.1833 19.1238C29.207 19.1558 29.2369 19.1826 29.2711 19.2024C29.3444 19.2422 29.4489 19.2473 29.5816 19.2171C29.7143 19.1869 29.8067 19.1369 29.8544 19.0695C29.8765 19.0369 29.8916 18.9999 29.8988 18.9608C29.9059 18.9218 29.905 18.8816 29.896 18.8428C29.887 18.804 29.8702 18.7674 29.8465 18.7354C29.8229 18.7033 29.793 18.6766 29.7587 18.6568Z" fill="#101820"/>
<path fill-rule="evenodd" clip-rule="evenodd" d="M16.7712 18.5479L29.7922 15.5818C30.1984 15.4892 30.626 15.5644 30.9809 15.7908C31.3358 16.0172 31.5889 16.3763 31.6846 16.789L32.2254 19.1233C32.321 19.5361 32.2513 19.9687 32.0316 20.3259C31.812 20.6832 31.4603 20.936 31.0541 21.0285L18.0331 23.9947C17.6269 24.0872 17.1992 24.012 16.8443 23.7856C16.4895 23.5592 16.2364 23.2001 16.1407 22.7874L15.5998 20.4531C15.5042 20.0404 15.574 19.6078 15.7936 19.2505C16.0132 18.8932 16.3649 18.6405 16.7712 18.5479ZM20.2757 21.8864L20.9322 21.7369L20.3734 19.3247L17.0844 20.0739L17.6433 22.4861L18.2999 22.3365L17.8852 20.5469L18.545 20.3966L18.9596 22.1862L19.6156 22.0368L19.2009 20.2471L19.861 20.0968L20.2757 21.8864ZM21.7311 20.5528L23.1435 20.2311L23.0728 19.929C22.987 19.559 22.8349 19.2825 22.6202 19.1072C22.4027 18.9294 22.112 18.8806 21.7564 18.9616C21.3943 19.044 21.1513 19.2211 21.0336 19.4883C20.9177 19.7514 20.9034 20.077 20.9911 20.4556C21.0676 20.7855 21.221 21.0585 21.4471 21.2673C21.6774 21.4799 22.0304 21.5338 22.4969 21.4275C22.6104 21.4017 22.7158 21.3727 22.8095 21.3418C22.934 21.2979 23.0555 21.2461 23.1735 21.1866L23.2015 21.1728L23.0592 20.5585L23.0148 20.5797C22.9087 20.6318 22.7993 20.6772 22.6875 20.7157C22.5945 20.7463 22.4969 20.7732 22.3975 20.7959C22.1958 20.8418 22.0429 20.8402 21.9423 20.7914C21.8536 20.7488 21.7825 20.6685 21.7311 20.5528ZM24.7972 19.401L25.4515 19.2519L25.4423 19.2122C25.4024 19.0308 25.3197 18.8614 25.2012 18.7187C25.0834 18.5793 24.9287 18.4771 24.7558 18.4243C24.5774 18.3679 24.377 18.3644 24.16 18.4138C23.8049 18.4947 23.5557 18.6746 23.4228 18.9424C23.2899 19.2102 23.2666 19.5362 23.3538 19.9124C23.441 20.2887 23.6035 20.5719 23.8431 20.7576C24.0826 20.9432 24.3845 20.9973 24.7399 20.9164C24.9568 20.867 25.1356 20.7771 25.2713 20.6491C25.4037 20.5267 25.4979 20.3678 25.5426 20.1914C25.5862 20.0117 25.5861 19.8235 25.5421 19.6429L25.5331 19.604L24.8785 19.7531L24.8848 19.7902C24.9087 19.9316 24.9023 20.0451 24.8656 20.1276C24.8308 20.2057 24.7431 20.2611 24.6047 20.2927C24.4317 20.3321 24.3026 20.3123 24.2206 20.2337C24.1348 20.1511 24.064 19.9925 24.0108 19.7628C23.9575 19.5331 23.9513 19.3608 23.9929 19.2506C24.0324 19.1465 24.1409 19.0735 24.3133 19.0342C24.4518 19.0027 24.5551 19.0146 24.6206 19.0697C24.69 19.128 24.7458 19.2276 24.7864 19.3651L24.7972 19.401ZM27.6488 20.2068L28.3053 20.0573L27.7465 17.6452L26.2295 17.9907L26.0353 17.1523L25.3787 17.3019L26.1318 20.5524L26.7884 20.4028L26.3737 18.6132L27.2341 18.4172L27.6488 20.2068ZM30.0842 19.652L31.0309 19.4364L30.8816 18.7919L30.5915 18.858L30.1819 17.0904L28.3653 17.5042L28.5041 18.1027L29.6643 17.8384L29.7453 18.1886C29.6812 18.1463 29.6101 18.1164 29.5355 18.1004C29.4229 18.0761 29.2822 18.0827 29.1168 18.1204C28.9379 18.1612 28.7926 18.2365 28.6848 18.3442C28.5796 18.4473 28.5063 18.5792 28.4737 18.7242C28.4428 18.8696 28.4443 19.0204 28.478 19.1658C28.5116 19.3112 28.5767 19.4475 28.6684 19.565C28.7617 19.6813 28.8856 19.7683 29.0257 19.8156C29.1701 19.8658 29.334 19.8707 29.5128 19.8299C29.6754 19.7929 29.8042 19.7373 29.8957 19.6649C29.956 19.6177 30.0074 19.5599 30.0477 19.4943L30.0842 19.652Z" fill="#101820"/>
</svg>
