<svg width="79" height="79" viewBox="0 0 79 79" fill="none" xmlns="http://www.w3.org/2000/svg">
<path d="M79 22.5714H48.4496L63.0392 7.98182L55.0574 0L33.8571 21.203V0H22.5714V30.5504L7.98182 15.9608L0 23.9426L21.203 45.1429H0V56.4286H30.5504L15.9608 71.0182L23.9398 79L45.1429 57.797V79H56.4286V48.4496L71.0182 63.0392L79 55.0602L57.797 33.8571H79V22.5714ZM39.5 45.1429C38.3839 45.1429 37.293 44.8119 36.365 44.1919C35.437 43.5718 34.7138 42.6905 34.2867 41.6594C33.8596 40.6283 33.7478 39.4937 33.9656 38.3991C34.1833 37.3045 34.7207 36.2991 35.5099 35.5099C36.2991 34.7207 37.3045 34.1833 38.3991 33.9656C39.4937 33.7478 40.6283 33.8596 41.6594 34.2867C42.6905 34.7138 43.5718 35.437 44.1919 36.365C44.8119 37.293 45.1429 38.3839 45.1429 39.5C45.1429 40.9966 44.5483 42.4319 43.4901 43.4901C42.4319 44.5483 40.9966 45.1429 39.5 45.1429Z" fill="#15171D"/>
</svg>
