<svg width="28" height="28" viewBox="0 0 45 45" fill="none" xmlns="http://www.w3.org/2000/svg">
<path d="M44 13.2857H27.3713L35.3125 5.34453L30.9679 1L19.4286 12.5409V1H13.2857V17.6287L5.34453 9.68754L1 14.0321L12.5409 25.5714H1V31.7143H17.6287L9.68754 39.6555L14.0305 44L25.5714 32.4591V44H31.7143V27.3713L39.6555 35.3125L44 30.9695L32.4591 19.4286H44V13.2857ZM22.5 25.5714C21.8925 25.5714 21.2987 25.3913 20.7936 25.0538C20.2885 24.7163 19.8948 24.2366 19.6624 23.6754C19.4299 23.1142 19.3691 22.4966 19.4876 21.9008C19.6061 21.305 19.8986 20.7577 20.3282 20.3282C20.7577 19.8986 21.305 19.6061 21.9008 19.4876C22.4966 19.3691 23.1142 19.4299 23.6754 19.6624C24.2366 19.8948 24.7163 20.2885 25.0538 20.7936C25.3913 21.2987 25.5714 21.8925 25.5714 22.5C25.5714 23.3146 25.2478 24.0958 24.6718 24.6718C24.0958 25.2478 23.3146 25.5714 22.5 25.5714Z" stroke="currentColor"/>
</svg>
